<svg width="24" height="25" viewBox="0 0 24 25" fill="none" xmlns="http://www.w3.org/2000/svg">
<path d="M12 22.0151C17.5228 22.0151 22 17.5379 22 12.0151C22 6.49229 17.5228 2.01514 12 2.01514C6.47715 2.01514 2 6.49229 2 12.0151C2 17.5379 6.47715 22.0151 12 22.0151Z" stroke="#556541" stroke-width="1.5"/>
<path d="M12.0078 10.5233C11.1794 10.5233 10.5078 11.1949 10.5078 12.0233C10.5078 12.8517 11.1794 13.5233 12.0078 13.5233C12.8362 13.5233 13.5078 12.8517 13.5078 12.0233C13.5078 11.1949 12.8362 10.5233 12.0078 10.5233ZM12.0078 10.5233V7.01416M15.0147 15.0349L13.0661 13.0863" stroke="#556541" stroke-width="1.5" stroke-linecap="round" stroke-linejoin="round"/>
</svg>
