<svg width="34" height="35" viewBox="0 0 34 35" fill="none" xmlns="http://www.w3.org/2000/svg">
<path d="M3.54175 17.015C3.54175 10.6707 3.54175 7.4985 5.51267 5.52756C7.48361 3.55664 10.6558 3.55664 17.0001 3.55664C23.3443 3.55664 26.5165 3.55664 28.4875 5.52756C30.4584 7.4985 30.4584 10.6707 30.4584 17.015C30.4584 23.3592 30.4584 26.5314 28.4875 28.5024C26.5165 30.4733 23.3443 30.4733 17.0001 30.4733C10.6558 30.4733 7.48361 30.4733 5.51267 28.5024C3.54175 26.5314 3.54175 23.3592 3.54175 17.015Z" stroke="#F8BE52" stroke-width="1.5" stroke-linejoin="round"/>
<path d="M23.375 17.0151C23.375 20.536 20.5208 23.3901 17 23.3901C13.4792 23.3901 10.625 20.536 10.625 17.0151C10.625 13.4943 13.4792 10.6401 17 10.6401C20.5208 10.6401 23.375 13.4943 23.375 17.0151Z" stroke="#F8BE52" stroke-width="1.5"/>
<path d="M24.8028 9.22363H24.79" stroke="#F8BE52" stroke-width="2" stroke-linecap="round" stroke-linejoin="round"/>
</svg>
