<svg width="1440" height="320" viewBox="0 0 1440 320" fill="none" xmlns="http://www.w3.org/2000/svg">
<mask id="mask0_214_881" style="mask-type:luminance" maskUnits="userSpaceOnUse" x="1040" y="0" width="401" height="320">
<path d="M1040 320L1440.49 320V0.186584L1040 0.186584V320Z" fill="white"/>
</mask>
<g mask="url(#mask0_214_881)">
<path d="M1451.36 -12.6186C1418.14 21.088 1371.82 39.7986 1324.91 46.1026C1278.01 52.4053 1230.26 47.1279 1183.76 38.2973C1153.33 32.5159 1121.83 25.2239 1091.79 32.8079C1111.22 9.8266 1134.69 -1.424 1163.37 -10.528C1192.06 -19.6307 1222.27 -22.8466 1252.31 -24.6786C1320.66 -28.8466 1383.57 -22.2346 1451.36 -12.6186Z" fill="#556541"/>
</g>
<mask id="mask1_214_881" style="mask-type:luminance" maskUnits="userSpaceOnUse" x="1040" y="0" width="401" height="320">
<path d="M1040 320L1440.49 320V0.186584L1040 0.186584V320Z" fill="white"/>
</mask>
<g mask="url(#mask1_214_881)">
<mask id="mask2_214_881" style="mask-type:luminance" maskUnits="userSpaceOnUse" x="1091" y="-26" width="361" height="75">
<path d="M1451.36 -12.6186C1418.14 21.088 1371.82 39.7986 1324.91 46.1026C1278.01 52.4053 1230.26 47.1279 1183.76 38.2973C1153.33 32.5173 1121.83 25.2239 1091.79 32.8079C1111.22 9.8266 1134.69 -1.42533 1163.37 -10.528C1192.06 -19.6307 1222.27 -22.8466 1252.31 -24.6786C1320.66 -28.8466 1383.57 -22.2346 1451.36 -12.6186Z" fill="white"/>
</mask>
<g mask="url(#mask2_214_881)">
<path d="M1083.64 34.312L1082.4 29.5814C1143.58 13.4921 1206.75 2.85606 1270.17 -2.0346C1333.58 -6.9226 1397.64 -6.09734 1460.57 0.423988L1460.06 5.29066C1397.43 -1.20001 1333.67 -2.02262 1270.54 2.84404C1207.42 7.71071 1144.54 18.2987 1083.64 34.312Z" fill="#26231E"/>
</g>
</g>
<mask id="mask3_214_881" style="mask-type:luminance" maskUnits="userSpaceOnUse" x="1040" y="0" width="401" height="320">
<path d="M1040 320L1440.49 320V0.186584L1040 0.186584V320Z" fill="white"/>
</mask>
<g mask="url(#mask3_214_881)">
<path d="M1512.81 5.8667C1503.57 -6.46396 1497.05 -15.904 1494.01 -30.5933C1493.68 -24.956 1487.01 -20.6772 1481.29 -17.0679C1466.74 -7.89725 1456.21 4.36539 1445.71 16.688C1449.34 14.7481 1452.98 14.9666 1455.47 17.4467C1432.44 26.3213 1416.51 47.5961 1417.01 67.5747C1420.29 66.6307 1423.77 65.6734 1427.01 66.1667C1430.26 66.6614 1430.97 68.9867 1430 71.7227C1417.28 72.64 1404.64 79.176 1397.61 88.4627C1390.59 97.7507 1390.07 109.412 1395.26 118.447C1400.27 114.427 1408.33 115.227 1410.77 120.073C1401.65 120.827 1388.88 124.689 1387.11 132.157C1384.86 141.604 1383.29 151.239 1383.2 160.675C1384.42 156.815 1388.37 153.401 1393.03 152.196C1397.68 150.991 1400.85 152.325 1403.81 155.101C1386 160.8 1373.79 176.86 1374.82 191.879C1377.25 187.751 1382.37 184.603 1387.74 183.947C1393.1 183.291 1396.83 185.771 1399.65 189.257C1390.89 188.759 1381.4 192.755 1376.22 199.121C1371.05 205.487 1372.66 214.401 1376.95 220.389C1380.62 214.377 1388.61 212.252 1395.59 214.604C1388.27 216.493 1381.79 221.297 1378.7 227.14C1375.61 232.983 1374.06 240.237 1377.74 245.239C1385.1 243.524 1392.2 243.469 1399.56 241.755C1394.86 244.977 1388.09 248.556 1383.39 251.779C1388.39 286.868 1413.05 299.831 1413.05 299.831C1432.96 284.055 1445.45 264.941 1445.45 264.941C1445.45 264.941 1440.11 252.723 1432.03 248.52C1438.58 246.653 1445.47 249.255 1448.73 253.793C1452.53 246.661 1457.41 238.4 1457.22 230.945C1457.03 223.492 1451.48 216.033 1442.53 215.317C1451.64 208.999 1462.88 208.893 1470.52 215.075C1474.18 207.656 1474.84 199.265 1471.66 192.296C1468.48 185.325 1461.87 179.703 1453.52 176.865C1461.6 172.324 1472.86 173.947 1477.22 180.313C1479.73 171.473 1482.94 162.399 1482.56 153.579C1482.33 148.284 1474.27 146.277 1467.88 145.857C1468.96 142.092 1473.11 138.204 1477.39 136.4C1481.66 134.597 1486.77 134.509 1490.68 136.172C1491.81 129.617 1492 121.465 1489.28 115.577C1486.55 109.691 1478.64 105.271 1470.92 107.576C1473.7 103.575 1478.69 99.076 1484.01 97.9707C1489.32 96.8653 1494.95 97.7653 1498.94 100.357C1500.1 93.7267 1501.03 87.6734 1499.44 81.3454C1497.85 75.0173 1492.94 69.1267 1485.34 67.568C1491.59 67.36 1498.95 66.9973 1505.19 66.7907C1509.9 60.084 1509.49 53.0306 1507.68 45.964C1505.87 38.896 1500.61 32.7493 1493.26 29.1187C1499.76 31.704 1508.84 32.1361 1516.38 30.9814C1520.9 20.9321 1519.12 14.272 1512.81 5.8667Z" fill="#556541"/>
</g>
<mask id="mask4_214_881" style="mask-type:luminance" maskUnits="userSpaceOnUse" x="1040" y="0" width="401" height="320">
<path d="M1040 320L1440.49 320V0.186584L1040 0.186584V320Z" fill="white"/>
</mask>
<g mask="url(#mask4_214_881)">
<mask id="mask5_214_881" style="mask-type:luminance" maskUnits="userSpaceOnUse" x="1372" y="-31" width="147" height="331">
<path d="M1512.81 5.8667C1503.57 -6.46396 1497.05 -15.904 1494.01 -30.5933C1493.68 -24.956 1487.01 -20.6772 1481.29 -17.0679C1466.74 -7.89725 1456.21 4.36539 1445.71 16.688C1449.34 14.7481 1452.98 14.9666 1455.47 17.4467C1432.44 26.3213 1416.51 47.5961 1417.01 67.5747C1420.29 66.6307 1423.77 65.6734 1427.01 66.1667C1430.26 66.6614 1430.97 68.9867 1430 71.7227C1417.28 72.64 1404.64 79.1773 1397.61 88.4627C1390.59 97.7507 1390.07 109.412 1395.26 118.447C1400.27 114.427 1408.33 115.227 1410.77 120.073C1401.65 120.827 1388.88 124.689 1387.11 132.157C1384.86 141.604 1383.29 151.239 1383.2 160.675C1384.42 156.815 1388.38 153.401 1393.03 152.196C1397.68 150.991 1400.85 152.325 1403.81 155.101C1386 160.8 1373.79 176.86 1374.82 191.879C1377.25 187.751 1382.37 184.603 1387.74 183.947C1393.1 183.291 1396.83 185.771 1399.65 189.257C1390.89 188.759 1381.4 192.755 1376.22 199.121C1371.05 205.487 1372.66 214.401 1376.95 220.389C1380.62 214.377 1388.61 212.251 1395.59 214.604C1388.27 216.493 1381.79 221.297 1378.7 227.14C1375.61 232.983 1374.06 240.237 1377.74 245.239C1385.1 243.524 1392.2 243.469 1399.56 241.755C1394.86 244.977 1388.09 248.556 1383.39 251.779C1388.39 286.868 1413.05 299.831 1413.05 299.831C1432.96 284.055 1445.45 264.941 1445.45 264.941C1445.45 264.941 1440.11 252.723 1432.03 248.519C1438.58 246.653 1445.47 249.255 1448.73 253.793C1452.53 246.661 1457.41 238.4 1457.22 230.945C1457.03 223.492 1451.48 216.033 1442.53 215.317C1451.64 208.999 1462.88 208.893 1470.52 215.075C1474.18 207.656 1474.84 199.265 1471.66 192.296C1468.48 185.325 1461.87 179.703 1453.52 176.865C1461.6 172.324 1472.86 173.947 1477.22 180.313C1479.73 171.473 1482.94 162.399 1482.56 153.577C1482.33 148.284 1474.27 146.276 1467.88 145.857C1468.96 142.092 1473.11 138.204 1477.39 136.4C1481.66 134.597 1486.77 134.509 1490.68 136.172C1491.81 129.617 1492 121.465 1489.28 115.577C1486.55 109.691 1478.64 105.271 1470.92 107.576C1473.7 103.575 1478.69 99.076 1484.01 97.9707C1489.32 96.8653 1494.95 97.7653 1498.94 100.357C1500.1 93.7267 1501.03 87.6734 1499.44 81.3454C1497.85 75.0173 1492.94 69.1267 1485.35 67.568C1491.59 67.36 1498.95 66.9973 1505.19 66.7907C1509.9 60.084 1509.49 53.0306 1507.68 45.964C1505.87 38.896 1500.61 32.7493 1493.26 29.1187C1499.76 31.704 1508.84 32.1361 1516.38 30.9814C1520.9 20.9321 1519.12 14.2707 1512.81 5.8667Z" fill="white"/>
</mask>
<g mask="url(#mask5_214_881)">
<path d="M1414.41 300.043C1414.09 291.823 1413.93 283.597 1413.93 275.372C1413.93 166.644 1442.18 57.9706 1495.37 -36.8721C1495.68 -37.4188 1495.49 -38.1107 1494.94 -38.4187C1494.39 -38.724 1493.7 -38.5308 1493.39 -37.9828C1440.01 57.2066 1411.66 166.251 1411.66 275.372C1411.66 283.627 1411.82 291.883 1412.15 300.132C1412.17 300.759 1412.7 301.247 1413.32 301.221C1413.95 301.196 1414.44 300.669 1414.41 300.043Z" fill="#1E1A15"/>
</g>
</g>
<mask id="mask6_214_881" style="mask-type:luminance" maskUnits="userSpaceOnUse" x="1040" y="0" width="401" height="320">
<path d="M1040 320L1440.49 320V0.186584L1040 0.186584V320Z" fill="white"/>
</mask>
<g mask="url(#mask6_214_881)">
<path d="M1307.05 118.376C1349.8 51.7973 1412.65 -2.34263 1486 -34.9613C1489.51 -36.5213 1493.61 -34.9427 1495.17 -31.436C1496.73 -27.9307 1495.15 -23.824 1491.65 -22.2653C1419.23 5.72133 1354.72 55.536 1308.97 119.675C1308.59 120.195 1307.87 120.316 1307.35 119.944C1306.85 119.584 1306.72 118.892 1307.05 118.376Z" fill="#778854"/>
<path d="M1311.24 116.1C1310.32 125.227 1309.39 134.441 1308.85 143.589C1308.55 147.62 1308.31 153.137 1308.33 157.179C1308.39 163.084 1308.49 169.488 1308.76 175.392C1309 180.028 1309.38 184.64 1309.65 189.293C1309.68 189.728 1309.02 189.904 1308.85 189.483C1307.54 186.611 1306.47 183.644 1305.52 180.627C1303.73 174.656 1302.47 168.219 1301.98 162.005L1301.76 157.256V152.501L1301.94 147.748L1302.32 143.008C1302.82 138.44 1303.91 133.491 1305.17 129.055C1306.56 124.515 1308.23 120.059 1310.45 115.863C1310.65 115.471 1311.3 115.648 1311.24 116.1Z" fill="#778854"/>
<path d="M1308.29 119.329C1305.43 124.692 1301.66 129.405 1297.52 133.749C1294.85 136.356 1292.13 139.353 1289.78 142.256C1287.37 145.173 1284.84 148.221 1282.58 151.272C1281.41 152.885 1280.29 154.515 1279.07 156.137C1278.93 156.337 1278.65 156.383 1278.46 156.231C1278.34 156.139 1278.29 155.995 1278.3 155.857C1278.56 152.747 1279.35 149.713 1280.43 146.781C1282.2 141.968 1285.18 137.459 1288.51 133.565C1291.04 130.524 1293.92 127.237 1297.12 124.909C1300.44 122.455 1303.86 120.3 1307.73 118.721C1308.09 118.567 1308.48 118.983 1308.29 119.329Z" fill="#778854"/>
<path d="M1325.03 94.4001C1324.34 102.463 1323.91 110.539 1323.95 118.624C1323.96 126.629 1323.62 134.724 1325.11 142.636C1325.72 146.172 1326.57 149.676 1327.13 153.224C1327.93 158.603 1328.28 163.979 1328.45 169.452C1328.52 173.119 1328.51 176.817 1328.07 180.619C1328.03 181.013 1327.45 181.155 1327.26 180.784C1322.82 172.544 1320.04 163.631 1318.66 154.437C1317.97 149.14 1318.07 143.168 1317.78 137.808C1317.5 132.279 1317.02 126.653 1317.29 121.108C1317.54 115.548 1318.54 109.885 1320.1 104.552C1321.12 100.963 1322.54 97.4747 1324.24 94.1627C1324.44 93.7774 1325.09 93.9267 1325.03 94.4001Z" fill="#778854"/>
<path d="M1346.75 72.1026C1345.23 79.6066 1344.52 86.8586 1344.28 94.2106C1344.11 100.772 1343.5 109.832 1344.23 116.284C1344.63 120.863 1345.82 125.428 1346.8 129.916C1347.9 134.415 1348.48 138.999 1349.19 143.571C1349.95 149.236 1350.84 154.82 1351.08 160.584C1351.09 160.825 1350.9 161.036 1350.66 161.041C1350.52 161.044 1350.39 160.976 1350.31 160.871C1349.11 159.292 1348.06 157.637 1347.04 155.961C1345.82 153.869 1344.76 151.639 1343.73 149.447C1341.27 143.643 1339.31 137.591 1338.56 131.315C1337.84 122.62 1337.44 113.931 1337.04 105.208C1336.79 93.728 1339.37 81.2973 1346 71.7626C1346.13 71.5719 1346.39 71.5253 1346.59 71.6573C1346.73 71.7613 1346.79 71.9386 1346.75 72.1026Z" fill="#778854"/>
<path d="M1367.49 52.0294C1365.79 66.3921 1365.12 81.5948 1365.2 96.0614C1365.21 104.22 1366.2 113.015 1366.88 121.113C1367.6 131.715 1368.39 142.269 1368.53 152.921C1368.53 153.328 1367.92 153.504 1367.73 153.117C1365.62 149.269 1363.97 145.223 1362.53 141.085C1360.47 134.895 1358.93 128.523 1358.03 122.057C1357.17 115.597 1357.13 109.069 1357 102.567C1356.77 89.7268 1357.7 76.3587 1360.26 63.7787C1361.02 60.1241 1362.29 54.7175 1363.36 51.1708C1364.11 48.7055 1367.79 49.4321 1367.49 52.0294Z" fill="#778854"/>
<path d="M1380.77 43.3987C1377.38 61.4653 1376.59 79.9746 1377.5 98.2959C1378.39 110.496 1379.05 122.811 1379.55 135.031C1379.64 137.104 1379.74 139.184 1379.72 141.3C1379.73 141.731 1379.07 141.881 1378.91 141.464C1373.23 127.959 1370.6 113.144 1370.63 98.5106C1370.4 79.7213 1372.72 60.8866 1376.79 42.5826C1377.41 40.0653 1381.19 40.76 1380.77 43.3987Z" fill="#778854"/>
<path d="M1399.73 24.2226C1396.81 32.5906 1395.67 41.6559 1394.8 50.4919C1394.01 59.4452 1393.86 68.4453 1394 77.3986C1394.11 85.1959 1395.35 96.208 1395.98 104.067C1396.76 112.935 1397.93 121.665 1400.03 130.6C1400.09 130.827 1399.95 131.056 1399.72 131.111C1399.55 131.151 1399.38 131.081 1399.28 130.952C1396.49 127.197 1394.41 122.935 1392.74 118.565C1389.46 109.827 1387.7 100.544 1387.37 91.248C1386.98 77.4066 1387.77 63.5427 1389.99 49.8933C1391.52 40.7587 1393.28 31.6853 1396.94 23.0773C1397.27 22.3133 1398.16 21.9652 1398.93 22.2972C1399.67 22.6212 1400.02 23.476 1399.73 24.2226Z" fill="#778854"/>
<path d="M1418.21 12.1226C1413.98 19.0866 1412.8 27.4292 1411.97 35.4532C1411.24 43.7478 1411.76 52.1372 1412.18 60.4572C1412.69 68.7919 1413.99 77.0266 1414.52 85.3612L1416.54 110.663C1416.56 110.897 1416.38 111.103 1416.15 111.123C1415.99 111.135 1415.84 111.056 1415.75 110.929C1413.35 107.232 1411.53 103.216 1410 99.1265C1407.01 90.9479 1405.08 82.3813 1404.52 73.6999C1403.71 60.6893 1404.26 47.6733 1406.29 34.7773C1407.67 26.0026 1409.38 17.3106 1414.08 9.46529C1415.88 6.70929 1419.99 9.30258 1418.21 12.1226Z" fill="#778854"/>
<path d="M1426.57 10.2961C1429.41 25.2027 1431.99 40.1307 1434.45 55.0787C1435.59 62.5361 1437.2 69.9334 1437.57 77.4841C1438.01 85.0694 1438.22 92.6987 1437.5 100.299C1437.47 100.712 1436.84 100.833 1436.68 100.429C1432.27 89.8307 1429.79 78.5561 1428.76 67.1761C1427.89 55.8987 1427.06 44.5974 1425.91 33.3614C1425.03 25.8908 1424.06 18.4308 1422.57 11.0935C1422.1 8.45745 1425.96 7.62139 1426.57 10.2961Z" fill="#778854"/>
<path d="M1439.53 0.35067C1440.95 15.944 1444.32 31.308 1448.52 46.3787C1451.72 57.272 1455.71 69.2294 1459.01 80.164C1460.22 83.96 1461.43 87.744 1462.51 91.5987C1462.57 91.8227 1462.44 92.052 1462.22 92.112C1462.04 92.1587 1461.87 92.088 1461.77 91.9494C1459.44 88.6627 1457.37 85.22 1455.41 81.7054C1452.63 76.624 1449.84 70.7467 1447.72 65.36C1444.84 57.8587 1442.64 50.1173 1440.59 42.3573C1437.18 28.696 1434.92 14.7107 1434.65 0.600021C1434.63 -0.747978 1435.71 -1.85603 1437.06 -1.87602C1438.35 -1.89469 1439.42 -0.91066 1439.53 0.35067Z" fill="#778854"/>
<path d="M1313.4 111.553C1301.66 116.197 1288.59 117.604 1276.06 116.429L1271.33 115.941L1266.63 115.239C1260.5 114.112 1254.22 112.193 1248.47 109.804C1245.56 108.549 1242.72 107.177 1240 105.579C1239.62 105.367 1239.82 104.723 1240.27 104.801C1249.31 106.389 1258.46 107.884 1267.57 108.904C1271.58 109.405 1277.08 109.931 1281.12 110.123C1287.02 110.348 1293.41 110.591 1299.31 110.695C1302.39 110.717 1305.46 110.712 1308.55 110.727C1310.11 110.709 1311.67 110.685 1313.25 110.743C1313.68 110.744 1313.82 111.405 1313.4 111.553Z" fill="#778854"/>
<path d="M1327.74 93.3137C1319.05 96.7137 1309.51 97.9283 1300.22 97.4643C1294.68 97.1603 1289.13 96.103 1283.66 95.2563C1278.35 94.4123 1272.42 93.9056 1267.21 92.671C1258.21 90.3536 1249.63 86.6683 1241.89 81.4123C1241.56 81.1883 1241.72 80.6123 1242.13 80.623C1245.96 80.5683 1249.64 80.9403 1253.28 81.3909C1258.71 82.1216 1264.02 83.0216 1269.29 84.371C1272.76 85.287 1276.16 86.4963 1279.61 87.4643C1286.48 89.4856 1293.63 90.1723 1300.73 90.8016C1306 91.3656 1311.4 91.8843 1316.69 92.159C1318.29 92.2736 1320.48 92.2909 1322.09 92.3683C1323.92 92.4389 1325.74 92.3843 1327.61 92.503C1328.04 92.5163 1328.16 93.1723 1327.74 93.3137Z" fill="#778854"/>
<path d="M1345.7 74.1746C1338.89 78.0226 1330.93 79.6519 1323.18 80.1093C1315.37 80.6306 1307.68 79.1066 1300.04 77.8573C1294.31 76.8853 1288.49 76.2999 1282.89 74.7213C1277.29 73.1426 1271.95 70.6333 1266.94 67.6959C1263.58 65.6746 1260.39 63.4173 1257.51 60.7319C1257.21 60.4666 1257.45 59.9226 1257.86 59.9879C1265.4 61.1293 1272.64 63.1773 1279.99 65.0026C1287.16 66.7813 1293.99 69.8959 1301.24 71.3573C1307.55 72.7466 1316.7 73.0773 1323.2 73.5813C1330.53 74.096 1337.82 74.1359 1345.44 73.3906C1345.68 73.3586 1345.9 73.5293 1345.92 73.7666C1345.94 73.9373 1345.85 74.096 1345.7 74.1746Z" fill="#778854"/>
<path d="M1363.83 55.8787C1346.89 59.008 1329.13 59.02 1312.05 56.92C1305.6 56.1174 1299.11 55.4094 1292.77 53.892C1284.32 51.7867 1276.11 48.6734 1268.46 44.516C1266.57 43.4147 1264.68 42.3027 1262.87 41.0494C1262.53 40.8187 1262.73 40.2107 1263.17 40.2774C1277.84 42.0814 1292.45 44.6854 1306.94 47.5894C1316.92 49.4347 1328.03 50.3454 1338.16 51.056C1341.28 51.2534 1347.62 51.536 1350.75 51.6187C1354.43 51.6987 1359.83 51.6827 1363.48 51.6733C1366.01 51.728 1366.35 55.3987 1363.83 55.8787Z" fill="#778854"/>
<path d="M1379.51 40.6959C1360.89 42.8652 1341.92 43.2333 1323.25 41.076C1312.87 40.0573 1302.48 37.5679 1292.78 33.7639C1288.88 32.1892 1285.04 30.4839 1281.38 28.4199C1281.17 28.3065 1281.1 28.0492 1281.22 27.8465C1281.3 27.6945 1281.47 27.6159 1281.63 27.6359C1285.79 28.0759 1289.87 28.7279 1293.97 29.3626C1302.05 30.5972 1310.12 31.7693 1318.15 33.2266C1321.15 33.78 1327.2 34.736 1330.22 35.132C1346.4 37.2586 1362.81 38 1379.11 36.648C1381.7 36.4946 1382.17 40.2959 1379.51 40.6959Z" fill="#778854"/>
<path d="M1408.48 18.6614C1399.55 21.416 1390.34 22.2348 1381.1 22.8148C1371.91 23.3148 1362.68 23.3054 1353.49 22.5814C1348.89 22.2228 1344.28 21.7934 1339.69 21.172C1330.48 19.888 1321.43 17.1814 1313.07 13.0227C1308.89 10.912 1304.87 8.40798 1301.42 5.24132C1301.25 5.08265 1301.24 4.81602 1301.39 4.64535C1301.51 4.51735 1301.69 4.48004 1301.85 4.53337C1310.52 7.54804 1319.08 9.60266 1327.82 11.2907C1335.63 12.732 1346.37 15.0827 1354.15 16.0041C1363.04 17.0641 1372.01 17.8361 1380.99 17.9707C1389.87 18.0174 1399.01 17.808 1407.63 15.7693C1409.48 15.2946 1410.35 18.0174 1408.48 18.6614Z" fill="#778854"/>
<path d="M1424.72 5.28395C1411.41 11.6573 1387.47 11.2132 1372.74 9.87458C1368.43 9.39458 1364.12 8.90129 1359.84 8.18395C1351.27 6.74395 1342.94 3.93863 1335.12 0.122626C1331.21 -1.82004 1327.4 -4.03611 1323.97 -6.81344C1323.63 -7.06811 1323.89 -7.65876 1324.31 -7.56409L1349.27 -2.95602C1357.51 -1.57335 1365.57 0.57197 1373.8 1.9333C1382.04 3.20397 1390.33 4.58801 1398.65 4.70934C1406.74 4.70401 1415.2 4.3879 1422.57 0.863902C1425.51 -0.492098 1427.64 3.76929 1424.72 5.28395Z" fill="#778854"/>
<path d="M1426.31 2.15328C1411.97 -2.34672 1397.1 -4.97328 1382.32 -7.74528C1374.91 -9.19862 1367.38 -10.1667 1360.15 -12.4414C1352.84 -14.6974 1345.65 -17.292 1338.91 -21.0707C1338.55 -21.264 1338.69 -21.8799 1339.11 -21.8679C1341.08 -21.8959 1342.99 -21.7627 1344.9 -21.6467C1354.34 -20.924 1363.73 -19.6506 1372.86 -17.1893C1383.8 -14.1773 1394.75 -11.2306 1405.66 -8.07732C1412.97 -6.07998 1420.25 -3.95605 1427.53 -1.74672C1430.07 -0.914717 1428.95 2.90795 1426.31 2.15328Z" fill="#778854"/>
</g>
<mask id="mask7_214_881" style="mask-type:luminance" maskUnits="userSpaceOnUse" x="0" y="0" width="402" height="320">
<path d="M402 320L3.05176e-05 320L3.05176e-05 0L402 0L402 320Z" fill="white"/>
</mask>
<g mask="url(#mask7_214_881)">
<path d="M-10.9156 -12.8127C22.4338 20.9136 68.9274 39.6351 116.011 45.9428C163.095 52.2491 211.02 46.9687 257.693 38.1329C288.246 32.3482 319.866 25.0519 350.019 32.6404C330.511 9.64562 306.957 -1.61155 278.161 -10.7209C249.366 -19.8288 219.041 -23.0467 188.887 -24.8798C120.285 -29.0502 57.1324 -22.4343 -10.9156 -12.8127Z" fill="#556541"/>
</g>
<mask id="mask8_214_881" style="mask-type:luminance" maskUnits="userSpaceOnUse" x="0" y="0" width="402" height="320">
<path d="M402 320L3.05176e-05 320L3.05176e-05 0L402 0L402 320Z" fill="white"/>
</mask>
<g mask="url(#mask8_214_881)">
<mask id="mask9_214_881" style="mask-type:luminance" maskUnits="userSpaceOnUse" x="-11" y="-27" width="362" height="76">
<path d="M-10.9156 -12.8127C22.4338 20.9136 68.9274 39.6351 116.011 45.9428C163.095 52.2491 211.02 46.9687 257.693 38.1329C288.246 32.3495 319.866 25.0519 350.019 32.6404C330.511 9.64562 306.957 -1.61288 278.161 -10.7209C249.366 -19.8288 219.041 -23.0467 188.887 -24.8798C120.285 -29.0502 57.1324 -22.4343 -10.9156 -12.8127Z" fill="white"/>
</mask>
<g mask="url(#mask9_214_881)">
<path d="M358.197 34.1453L359.444 29.4119C298.03 13.3132 234.616 2.67096 170.963 -2.22256C107.309 -7.11341 43.0072 -6.28767 -20.1557 0.237473L-19.6498 5.10698C43.2213 -1.38748 107.225 -2.21057 170.586 2.65894C233.945 7.52844 297.067 18.1226 358.197 34.1453Z" fill="#26231E"/>
</g>
</g>
<mask id="mask10_214_881" style="mask-type:luminance" maskUnits="userSpaceOnUse" x="0" y="0" width="402" height="320">
<path d="M402 320L3.05176e-05 320L3.05176e-05 0L402 0L402 320Z" fill="white"/>
</mask>
<g mask="url(#mask10_214_881)">
<path d="M-72.5997 5.68347C-63.3195 -6.65439 -56.7749 -16.0999 -53.7221 -30.7978C-53.3929 -25.1572 -46.6997 -20.876 -40.9527 -17.2646C-26.3498 -8.08853 -15.7821 4.18127 -5.23705 16.5111C-8.88277 14.57 -12.5365 14.7887 -15.0392 17.2702C8.07438 26.15 24.0652 47.4371 23.57 67.4275C20.2709 66.4829 16.7858 65.525 13.5269 66.0186C10.2693 66.5136 9.55726 68.8403 10.5276 71.5779C23.2929 72.4957 35.9874 79.0355 43.0393 88.3276C50.0898 97.621 50.6104 109.289 45.4015 118.329C40.3745 114.307 32.2747 115.107 29.8335 119.957C38.9893 120.711 51.8015 124.575 53.5829 132.048C55.8367 141.5 57.4119 151.14 57.5069 160.582C56.281 156.72 52.3101 153.304 47.6405 152.098C42.9737 150.892 39.7843 152.228 36.8118 155.005C54.691 160.707 66.9505 176.777 65.9173 191.804C63.4815 187.674 58.3327 184.524 52.9485 183.867C47.5642 183.211 43.8222 185.692 40.9915 189.181C49.7819 188.682 59.3098 192.68 64.5066 199.051C69.7035 205.42 68.0855 214.34 63.7786 220.331C60.0941 214.316 52.0718 212.189 45.0655 214.543C52.4198 216.433 58.9176 221.24 62.02 227.086C65.1236 232.932 66.6814 240.191 62.9862 245.195C55.5984 243.479 48.4717 243.425 41.0852 241.709C45.8043 244.934 52.5938 248.514 57.3142 251.739C52.2994 286.849 27.5436 299.819 27.5436 299.819C7.56043 284.034 -4.98409 264.909 -4.98409 264.909C-4.98409 264.909 0.384125 252.683 8.49062 248.478C1.91254 246.611 -5.00551 249.213 -8.27113 253.755C-12.0828 246.619 -16.9812 238.352 -16.7925 230.893C-16.6024 223.436 -11.0349 215.973 -2.04504 215.256C-11.1928 208.934 -22.4806 208.829 -30.1427 215.014C-33.8232 207.591 -34.4857 199.195 -31.2924 192.222C-28.099 185.247 -21.4634 179.621 -13.0839 176.782C-21.1904 172.238 -32.4969 173.862 -36.8666 180.232C-39.3854 171.387 -42.6163 162.307 -42.2322 153.482C-42.002 148.184 -33.9142 146.176 -27.4968 145.756C-28.5755 141.988 -32.7458 138.098 -37.0366 136.293C-41.3288 134.489 -46.4534 134.401 -50.3788 136.065C-51.5151 129.506 -51.7105 121.35 -48.9735 115.458C-46.2365 109.568 -38.2973 105.145 -30.5428 107.452C-33.34 103.448 -38.3456 98.9471 -43.683 97.8412C-49.0204 96.7352 -54.671 97.6357 -58.674 100.229C-59.8384 93.5947 -60.7672 87.5378 -59.1706 81.2061C-57.5739 74.8745 -52.6527 68.9803 -45.0253 67.4208C-51.2915 67.2126 -58.6821 66.8498 -64.9483 66.643C-69.6727 59.9324 -69.2605 52.8749 -67.447 45.8041C-65.6335 38.732 -60.3523 32.5818 -52.9739 28.949C-59.4931 31.5358 -68.6127 31.9682 -76.1758 30.8128C-80.7156 20.7576 -78.9249 14.0937 -72.5997 5.68347Z" fill="#556541"/>
</g>
<mask id="mask11_214_881" style="mask-type:luminance" maskUnits="userSpaceOnUse" x="0" y="0" width="402" height="320">
<path d="M402 320L3.05176e-05 320L3.05176e-05 0L402 0L402 320Z" fill="white"/>
</mask>
<g mask="url(#mask11_214_881)">
<mask id="mask12_214_881" style="mask-type:luminance" maskUnits="userSpaceOnUse" x="-79" y="-31" width="147" height="331">
<path d="M-72.5997 5.68347C-63.3208 -6.65439 -56.7748 -16.0999 -53.722 -30.7978C-53.3928 -25.1572 -46.6996 -20.876 -40.9526 -17.2646C-26.3497 -8.08853 -15.782 4.18127 -5.23699 16.5111C-8.88271 14.57 -12.5364 14.7887 -15.0392 17.2702C8.07444 26.15 24.0653 47.4371 23.5701 67.4275C20.271 66.4829 16.7845 65.525 13.5269 66.0186C10.2694 66.5136 9.55733 68.8403 10.5276 71.5779C23.293 72.4957 35.9875 79.0369 43.0393 88.3276C50.0898 97.621 50.6104 109.289 45.4015 118.329C40.3746 114.307 32.2748 115.107 29.8336 119.957C38.9894 120.711 51.8016 124.575 53.5829 132.048C55.8368 141.5 57.4106 151.14 57.507 160.582C56.2811 156.72 52.3088 153.304 47.6406 152.098C42.9737 150.892 39.7844 152.228 36.8119 155.005C54.6924 160.707 66.9506 176.777 65.9174 191.804C63.4815 187.674 58.3328 184.524 52.9485 183.867C47.5643 183.211 43.8222 185.692 40.9916 189.181C49.782 188.682 59.3098 192.68 64.5067 199.051C69.7036 205.42 68.0868 214.34 63.7773 220.331C60.0941 214.316 52.0719 212.188 45.0656 214.543C52.4199 216.433 58.9177 221.24 62.02 227.086C65.1237 232.932 66.6815 240.191 62.9863 245.195C55.5985 243.479 48.4717 243.425 41.0853 241.709C45.8044 244.934 52.5939 248.514 57.3143 251.739C52.2994 286.849 27.5437 299.819 27.5437 299.819C7.5605 284.034 -4.98402 264.909 -4.98402 264.909C-4.98402 264.909 0.384193 252.683 8.49068 248.477C1.91261 246.611 -5.00544 249.213 -8.27106 253.755C-12.0827 246.619 -16.9825 238.352 -16.7924 230.893C-16.6024 223.436 -11.0348 215.973 -2.04497 215.256C-11.1927 208.934 -22.4805 208.829 -30.1426 215.014C-33.8232 207.591 -34.4856 199.195 -31.2923 192.222C-28.0989 185.247 -21.4633 179.621 -13.0838 176.782C-21.1903 172.238 -32.4968 173.862 -36.8666 180.232C-39.3854 171.387 -42.6162 162.307 -42.2321 153.48C-42.0019 148.184 -33.9142 146.175 -27.4967 145.756C-28.5754 141.988 -32.7457 138.098 -37.0365 136.293C-41.3287 134.489 -46.4533 134.401 -50.3787 136.065C-51.515 129.506 -51.7104 121.35 -48.9734 115.458C-46.2365 109.568 -38.2973 105.145 -30.5428 107.452C-33.34 103.448 -38.3455 98.9471 -43.6829 97.8412C-49.0203 96.7352 -54.6709 97.6357 -58.674 100.229C-59.8384 93.5947 -60.7672 87.5378 -59.1705 81.2061C-57.5738 74.8745 -52.6526 68.9803 -45.0266 67.4208C-51.2915 67.2126 -58.682 66.8498 -64.9482 66.643C-69.6727 59.9324 -69.2604 52.8749 -67.4469 45.8041C-65.6335 38.732 -60.3509 32.5818 -52.9725 28.949C-59.493 31.5358 -68.614 31.9682 -76.1758 30.8128C-80.7155 20.7576 -78.9248 14.0924 -72.5997 5.68347Z" fill="white"/>
</mask>
<g mask="url(#mask12_214_881)">
<path d="M26.1732 300.031C26.4998 291.806 26.6617 283.576 26.6617 275.346C26.6617 166.555 -1.697 57.8178 -55.0938 -37.0801C-55.4017 -37.6271 -55.2062 -38.3195 -54.6575 -38.6277C-54.1088 -38.9332 -53.4142 -38.7398 -53.1063 -38.1915C0.483212 57.0534 28.9396 166.161 28.9409 275.346C28.9409 283.605 28.7776 291.866 28.4497 300.12C28.4257 300.747 27.8957 301.236 27.2667 301.21C26.6376 301.185 26.1478 300.658 26.1732 300.031Z" fill="#1E1A15"/>
</g>
</g>
<mask id="mask13_214_881" style="mask-type:luminance" maskUnits="userSpaceOnUse" x="0" y="0" width="402" height="320">
<path d="M402 320L3.05176e-05 320L3.05176e-05 0L402 0L402 320Z" fill="white"/>
</mask>
<g mask="url(#mask13_214_881)">
<path d="M133.944 118.258C91.0263 51.6409 27.9464 -2.53069 -45.6825 -35.1684C-49.2024 -36.7293 -53.3246 -35.1498 -54.8891 -31.6411C-56.4537 -28.1337 -54.8704 -24.0246 -51.3505 -22.465C21.3336 5.53798 86.0905 55.3818 132.019 119.558C132.393 120.078 133.118 120.2 133.641 119.827C134.147 119.467 134.276 118.775 133.944 118.258Z" fill="#778854"/>
<path d="M129.733 115.981C130.664 125.113 131.59 134.333 132.14 143.486C132.441 147.519 132.679 153.04 132.662 157.084C132.596 162.992 132.492 169.4 132.221 175.308C131.988 179.946 131.602 184.561 131.331 189.217C131.299 189.652 131.964 189.828 132.134 189.407C133.45 186.533 134.526 183.564 135.479 180.545C137.272 174.571 138.541 168.13 139.034 161.913L139.248 157.161V152.404L139.075 147.647L138.692 142.905C138.189 138.334 137.094 133.382 135.826 128.943C134.43 124.401 132.758 119.942 130.527 115.744C130.329 115.351 129.672 115.529 129.733 115.981Z" fill="#778854"/>
<path d="M132.702 119.212C135.563 124.578 139.352 129.294 143.506 133.641C146.185 136.249 148.919 139.248 151.281 142.152C153.697 145.071 156.237 148.121 158.504 151.174C159.678 152.788 160.806 154.418 162.023 156.042C162.163 156.242 162.446 156.287 162.638 156.135C162.758 156.043 162.814 155.899 162.803 155.762C162.543 152.649 161.744 149.614 160.667 146.68C158.884 141.864 155.898 137.352 152.554 133.457C150.011 130.413 147.125 127.125 143.905 124.795C140.581 122.339 137.143 120.183 133.263 118.604C132.903 118.449 132.51 118.865 132.702 119.212Z" fill="#778854"/>
<path d="M115.889 94.2684C116.588 102.336 117.019 110.416 116.973 118.506C116.967 126.516 117.312 134.616 115.809 142.532C115.2 146.071 114.343 149.577 113.785 153.127C112.982 158.508 112.632 163.888 112.463 169.364C112.388 173.033 112.396 176.734 112.846 180.537C112.881 180.932 113.469 181.074 113.658 180.703C118.108 172.458 120.903 163.539 122.288 154.341C122.983 149.04 122.878 143.065 123.171 137.702C123.452 132.169 123.937 126.541 123.666 120.992C123.411 115.429 122.412 109.763 120.84 104.426C119.821 100.835 118.392 97.3448 116.684 94.0308C116.483 93.6453 115.832 93.7947 115.889 94.2684Z" fill="#778854"/>
<path d="M94.0899 71.958C95.6197 79.4664 96.3317 86.7226 96.5752 94.0789C96.7425 100.644 97.3555 109.709 96.6207 116.165C96.2219 120.746 95.0241 125.314 94.0404 129.805C92.9416 134.306 92.3554 138.893 91.6447 143.468C90.8778 149.136 89.9878 154.724 89.7456 160.491C89.7309 160.732 89.9222 160.943 90.1685 160.949C90.3117 160.951 90.4415 160.883 90.5231 160.778C91.725 159.198 92.7796 157.543 93.8035 155.866C95.0268 153.772 96.0934 151.54 97.1226 149.347C99.5919 143.54 101.558 137.484 102.317 131.204C103.036 122.505 103.437 113.81 103.839 105.083C104.093 93.5959 101.496 81.158 94.8447 71.6177C94.7122 71.427 94.4486 71.3803 94.2572 71.5123C94.1113 71.6164 94.0498 71.7939 94.0899 71.958Z" fill="#778854"/>
<path d="M73.2688 51.873C74.9806 66.244 75.6511 81.4556 75.5695 95.9307C75.5614 104.094 74.5644 112.894 73.8872 120.997C73.1631 131.605 72.3748 142.166 72.2316 152.824C72.2289 153.231 72.8432 153.407 73.0333 153.02C75.1466 149.17 76.8115 145.121 78.2542 140.981C80.3193 134.787 81.8625 128.411 82.7712 121.942C83.6331 115.478 83.6693 108.946 83.8058 102.44C84.0333 89.5924 83.1031 76.2165 80.5295 63.6292C79.7666 59.9724 78.4978 54.5626 77.4231 51.0139C76.6696 48.5471 72.9757 49.2742 73.2688 51.873Z" fill="#778854"/>
<path d="M59.9402 43.2373C63.349 61.3145 64.1346 79.8346 63.2272 98.1666C62.3305 110.374 61.6747 122.696 61.1701 134.923C61.0765 136.997 60.9734 139.078 60.9989 141.196C60.9908 141.627 61.648 141.777 61.8099 141.36C67.514 127.847 70.156 113.023 70.1252 98.3814C70.354 79.5811 68.028 60.7355 63.9406 42.4208C63.3196 39.902 59.5253 40.5971 59.9402 43.2373Z" fill="#778854"/>
<path d="M40.9126 24.05C43.8383 32.4229 44.9906 41.4935 45.8592 50.3346C46.6528 59.2932 46.8067 68.2985 46.6662 77.257C46.5524 85.0589 45.3051 96.0774 44.6761 103.941C43.8918 112.814 42.7234 121.55 40.6088 130.489C40.5539 130.716 40.6931 130.946 40.9193 131C41.0879 131.04 41.2605 130.971 41.3596 130.842C44.1661 127.085 46.25 122.82 47.9269 118.448C51.2166 109.704 52.986 100.416 53.3179 91.1145C53.7141 77.2651 52.9177 63.393 50.6854 49.7357C49.1529 40.5957 47.3862 31.5171 43.7138 22.9041C43.3792 22.1396 42.4865 21.7913 41.7196 22.1235C40.9728 22.4477 40.6235 23.3029 40.9126 24.05Z" fill="#778854"/>
<path d="M22.3587 11.9429C26.604 18.9109 27.7884 27.2584 28.6249 35.2871C29.3624 43.5866 28.8364 51.9809 28.4175 60.3057C27.9076 68.6452 26.5973 76.8847 26.0673 85.2243L24.041 110.54C24.0223 110.775 24.1989 110.981 24.4345 111.001C24.5951 111.013 24.7437 110.934 24.8267 110.807C27.2451 107.108 29.0652 103.089 30.6003 98.9976C33.6036 90.8142 35.5456 82.2425 36.0997 73.5561C36.9201 60.5379 36.3607 47.5143 34.3277 34.6108C32.9425 25.831 31.2213 17.1339 26.509 9.28403C24.7035 6.52643 20.58 9.12123 22.3587 11.9429Z" fill="#778854"/>
<path d="M13.9699 10.1153C11.1178 25.0306 8.53346 39.9674 6.05882 54.9241C4.91585 62.3858 3.3044 69.7874 2.92431 77.3425C2.488 84.9322 2.27926 92.566 3.00064 100.17C3.03008 100.584 3.66181 100.705 3.81973 100.301C8.24839 89.6963 10.7337 78.4151 11.7736 67.0285C12.6476 55.7446 13.4814 44.4366 14.6297 33.1941C15.5144 25.7191 16.4887 18.2547 17.9904 10.9131C18.4588 8.27559 14.5855 7.43904 13.9699 10.1153Z" fill="#778854"/>
<path d="M0.965038 0.164185C-0.458984 15.7666 -3.84776 31.1396 -8.06227 46.219C-11.2757 57.1187 -15.2828 69.0831 -18.5912 80.0241C-19.8024 83.8223 -21.0203 87.6085 -22.1084 91.4654C-22.1686 91.6895 -22.0362 91.919 -21.8113 91.9791C-21.6373 92.0258 -21.458 91.9551 -21.359 91.8163C-19.0275 88.5278 -16.945 85.0831 -14.9736 81.5663C-12.1912 76.482 -9.39127 70.6012 -7.25657 65.2114C-4.37106 57.7057 -2.16138 49.9599 -0.0976176 42.1953C3.3179 28.526 5.59044 14.5326 5.85544 0.413681C5.87551 -0.935104 4.79411 -2.04379 3.44102 -2.0638C2.14816 -2.08248 1.07478 -1.09789 0.965038 0.164185Z" fill="#778854"/>
<path d="M127.572 111.432C139.354 116.078 152.47 117.486 165.052 116.31L169.799 115.822L174.519 115.119C180.672 113.992 186.97 112.072 192.746 109.681C195.66 108.426 198.512 107.053 201.245 105.454C201.626 105.241 201.423 104.597 200.973 104.676C191.9 106.265 182.717 107.76 173.569 108.781C169.543 109.282 164.024 109.808 159.971 110C154.051 110.226 147.633 110.468 141.706 110.573C138.621 110.595 135.538 110.59 132.435 110.604C130.875 110.587 129.308 110.563 127.714 110.621C127.283 110.622 127.149 111.284 127.572 111.432Z" fill="#778854"/>
<path d="M113.175 93.1814C121.892 96.5834 131.468 97.7988 140.796 97.3345C146.361 97.0303 151.927 95.9724 157.419 95.1252C162.745 94.2807 168.707 93.7737 173.933 92.5383C182.971 90.2197 191.579 86.5322 199.351 81.2731C199.68 81.049 199.521 80.4727 199.103 80.4833C195.261 80.4286 191.567 80.8008 187.913 81.2517C182.466 81.9828 177.134 82.8834 171.848 84.2335C168.361 85.15 164.951 86.3601 161.483 87.3287C154.589 89.3512 147.412 90.0382 140.286 90.6679C134.996 91.2322 129.578 91.7512 124.265 92.0261C122.656 92.1408 120.462 92.1581 118.842 92.2355C117.009 92.3062 115.18 92.2515 113.299 92.3703C112.871 92.3836 112.753 93.04 113.175 93.1814Z" fill="#778854"/>
<path d="M95.1418 74.0312C101.98 77.8815 109.968 79.5117 117.755 79.9693C125.586 80.491 133.311 78.9661 140.98 77.716C146.725 76.7434 152.57 76.1578 158.195 74.5782C163.813 72.9986 169.17 70.4878 174.199 67.5487C177.572 65.5262 180.779 63.2676 183.668 60.5807C183.965 60.3152 183.726 59.7709 183.32 59.8362C175.752 60.9782 168.486 63.0275 161.099 64.8539C153.907 66.6336 147.048 69.75 139.776 71.2122C133.441 72.6023 124.251 72.9332 117.733 73.4375C110.368 73.9525 103.054 73.9925 95.4041 73.2467C95.1686 73.2147 94.9478 73.3855 94.9264 73.623C94.909 73.7937 94.9986 73.9525 95.1418 74.0312Z" fill="#778854"/>
<path d="M76.9481 55.7245C93.9521 58.8557 111.78 58.8677 128.92 56.7665C135.399 55.9633 141.912 55.2549 148.275 53.7367C156.755 51.6301 164.995 48.515 172.676 44.3552C174.579 43.2533 176.469 42.1406 178.285 40.8866C178.632 40.6558 178.428 40.0474 177.992 40.1141C163.259 41.9192 148.599 44.5247 134.055 47.4303C124.037 49.2768 112.881 50.188 102.714 50.899C99.5813 51.0965 93.216 51.3793 90.0748 51.462C86.385 51.542 80.9672 51.5261 77.2974 51.5167C74.7639 51.5714 74.4186 55.2442 76.9481 55.7245Z" fill="#778854"/>
<path d="M61.2035 40.5328C79.8965 42.7034 98.9441 43.0717 117.68 40.9131C128.102 39.8939 138.532 37.403 148.264 33.5968C152.182 32.0212 156.031 30.3148 159.713 28.2496C159.916 28.1362 159.988 27.8788 159.873 27.676C159.786 27.5239 159.619 27.4452 159.456 27.4652C155.285 27.9055 151.189 28.5579 147.074 29.1929C138.961 30.4283 130.863 31.601 122.796 33.0592C119.793 33.6129 113.716 34.5694 110.688 34.9657C94.4459 37.0936 77.9719 37.8354 61.6064 36.4826C59.01 36.3291 58.5415 40.1326 61.2035 40.5328Z" fill="#778854"/>
<path d="M32.1248 18.4855C41.0973 21.2418 50.3387 22.061 59.6163 22.6413C68.8389 23.1416 78.0977 23.1323 87.3298 22.4079C91.9458 22.049 96.5672 21.6194 101.178 20.9977C110.426 19.7129 119.512 17.0047 127.9 12.8436C132.09 10.7317 136.132 8.22616 139.593 5.05764C139.764 4.89888 139.776 4.6321 139.618 4.46133C139.501 4.33326 139.319 4.29592 139.165 4.34929C130.46 7.36571 121.864 9.42154 113.089 11.1105C105.252 12.5527 94.4767 14.9048 86.6674 15.8267C77.7431 16.8873 68.7412 17.6598 59.7193 17.7945C50.8085 17.8412 41.6366 17.6316 32.9814 15.5918C31.1264 15.1168 30.2498 17.8411 32.1248 18.4855Z" fill="#778854"/>
<path d="M15.8276 5.10025C29.1912 11.4773 53.2202 11.033 68.0078 9.69356C72.3281 9.21328 76.6537 8.7197 80.9485 8.00195C89.5596 6.56111 97.9137 3.75414 105.77 -0.064085C109.695 -2.00788 113.519 -4.22525 116.961 -7.0042C117.296 -7.25901 117.038 -7.85001 116.615 -7.75529L91.5604 -3.14453C83.2933 -1.76105 75.2055 0.385521 66.9371 1.74765C58.6727 3.01906 50.3494 4.40391 41.9927 4.52531C33.8714 4.51997 25.3862 4.20368 17.9837 0.677624C15.0312 -0.679168 12.8952 3.5847 15.8276 5.10025Z" fill="#778854"/>
<path d="M14.227 1.9678C28.6291 -2.53482 43.556 -5.16292 58.3891 -7.93654C65.8264 -9.39072 73.3801 -10.3594 80.6408 -12.6354C87.9817 -14.8927 95.2009 -17.4888 101.962 -21.2697C102.326 -21.4632 102.187 -22.0794 101.758 -22.0674C99.7875 -22.0955 97.8669 -21.9622 95.945 -21.8461C86.4761 -21.123 77.0486 -19.8488 67.8794 -17.3861C56.8981 -14.3723 45.9155 -11.4239 34.9596 -8.26877C27.624 -6.27027 20.3179 -4.1451 13.0117 -1.93447C10.4595 -1.10199 11.581 2.72291 14.227 1.9678Z" fill="#778854"/>
</g>
</svg>
