<svg width="25" height="25" viewBox="0 0 25 25" fill="none" xmlns="http://www.w3.org/2000/svg">
<path d="M5.33325 9.01514C5.33325 5.71531 5.33325 4.06539 6.35838 3.04027C7.3835 2.01514 9.03342 2.01514 12.3333 2.01514C15.6331 2.01514 17.283 2.01514 18.3082 3.04027C19.3333 4.06539 19.3333 5.71531 19.3333 9.01514V15.0151C19.3333 18.3149 19.3333 19.9648 18.3082 20.99C17.283 22.0151 15.6331 22.0151 12.3333 22.0151C9.03342 22.0151 7.3835 22.0151 6.35838 20.99C5.33325 19.9648 5.33325 18.3149 5.33325 15.0151V9.01514Z" stroke="#556541" stroke-width="1.5" stroke-linecap="round"/>
<path d="M11.3333 19.0151H13.3333" stroke="#556541" stroke-width="1.5" stroke-linecap="round" stroke-linejoin="round"/>
<path d="M9.33325 2.01514L9.42225 2.54916C9.61513 3.70643 9.71157 4.28507 10.1084 4.63718C10.5225 5.00448 11.1094 5.01514 12.3333 5.01514C13.5572 5.01514 14.1441 5.00448 14.5581 4.63718C14.955 4.28507 15.0514 3.70643 15.2443 2.54916L15.3333 2.01514" stroke="#556541" stroke-width="1.5" stroke-linejoin="round"/>
</svg>
