<svg xmlns="http://www.w3.org/2000/svg" xmlns:xlink="http://www.w3.org/1999/xlink" width="1080" zoomAndPan="magnify" viewBox="0 0 810 809.999993" height="1080" preserveAspectRatio="xMidYMid meet" version="1.0"><defs><g/></defs><rect x="-81" width="972" fill="#ffffff" y="-80.999999" height="971.999992" fill-opacity="1"/><rect x="-81" width="972" fill="#bfb28a" y="-80.999999" height="971.999992" fill-opacity="1"/><g fill="#ffdf2b" fill-opacity="1"><g transform="translate(85.37247, 554.5105)"><g><path d="M 12.53125 -151.78125 L 35.546875 -151.78125 L 35.546875 -88.25 L 62.828125 -88.25 L 62.828125 -151.78125 L 85.84375 -151.78125 L 85.84375 0 L 62.828125 0 L 62.828125 -70.109375 L 35.546875 -70.109375 L 35.546875 0 L 12.53125 0 Z M 12.53125 -151.78125 "/></g></g></g><g fill="#ffdf2b" fill-opacity="1"><g transform="translate(216.140266, 554.5105)"><g><path d="M 48.609375 1.328125 C 46.003906 1.328125 43.085938 1.078125 39.859375 0.578125 C 36.628906 0.078125 33.414062 -1.015625 30.21875 -2.703125 C 27.019531 -4.398438 24.085938 -6.976562 21.421875 -10.4375 C 18.753906 -13.90625 16.601562 -18.570312 14.96875 -24.4375 C 13.34375 -30.300781 12.53125 -37.707031 12.53125 -46.65625 L 12.53125 -151.78125 L 35.546875 -151.78125 L 35.546875 -41.234375 C 35.546875 -31.816406 36.597656 -25.375 38.703125 -21.90625 C 40.804688 -18.4375 44.109375 -16.703125 48.609375 -16.703125 C 53.171875 -16.703125 56.503906 -18.4375 58.609375 -21.90625 C 60.710938 -25.375 61.765625 -31.816406 61.765625 -41.234375 L 61.765625 -151.78125 L 84.6875 -151.78125 L 84.6875 -46.65625 C 84.6875 -37.707031 83.867188 -30.300781 82.234375 -24.4375 C 80.609375 -18.570312 78.460938 -13.90625 75.796875 -10.4375 C 73.140625 -6.976562 70.207031 -4.398438 67 -2.703125 C 63.800781 -1.015625 60.601562 0.078125 57.40625 0.578125 C 54.207031 1.078125 51.273438 1.328125 48.609375 1.328125 Z M 48.609375 1.328125 "/></g></g></g><g fill="#ffdf2b" fill-opacity="1"><g transform="translate(345.845117, 554.5105)"><g/></g></g><g fill="#ffdf2b" fill-opacity="1"><g transform="translate(417.518774, 554.5105)"><g/></g></g><g fill="#ffdf2b" fill-opacity="1"><g transform="translate(489.19243, 554.5105)"><g/></g></g><g fill="#3c570b" fill-opacity="1"><g transform="translate(338.171353, 550.323098)"><g><path d="M 83.59375 -84.40625 L 141.359375 -148.734375 L 150.578125 -148.734375 L 150.578125 0 L 120.875 0 L 121.078125 -81.75 L 83.59375 -42.40625 L 46.09375 -81.75 L 46.09375 0 L 16.390625 0 L 16.390625 -148.734375 L 25.8125 -148.734375 Z M 83.59375 -84.40625 "/></g></g></g><g fill="#ffdf2b" fill-opacity="1"><g transform="translate(524.951082, 549.366878)"><g><path d="M 29.5 -151.78125 L 55.453125 -151.78125 L 83.796875 0 L 60.703125 0 L 56.515625 -27.1875 L 28.4375 -27.1875 L 24.4375 0 L 1.25 0 Z M 53.859375 -44.515625 L 43.015625 -120.5 L 42.03125 -120.5 L 31.109375 -44.515625 Z M 53.859375 -44.515625 "/></g></g></g><g fill="#ffdf2b" fill-opacity="1"><g transform="translate(627.465351, 549.366878)"><g><path d="M 12.53125 -151.78125 L 30.75 -151.78125 L 67.8125 -51.984375 L 68.34375 -51.984375 C 68.101562 -55.128906 67.789062 -58.640625 67.40625 -62.515625 C 67.019531 -66.398438 66.675781 -71.066406 66.375 -76.515625 C 66.082031 -81.960938 65.9375 -88.597656 65.9375 -96.421875 L 65.9375 -151.78125 L 86.375 -151.78125 L 86.375 0 L 67.984375 0 L 31.109375 -97.125 L 30.390625 -97.125 C 30.691406 -93.570312 31.019531 -89.691406 31.375 -85.484375 C 31.726562 -81.285156 32.050781 -75.984375 32.34375 -69.578125 C 32.644531 -63.179688 32.796875 -54.859375 32.796875 -44.609375 L 32.796875 0 L 12.53125 0 Z M 12.53125 -151.78125 "/></g></g></g><g fill="#ffdf2b" fill-opacity="1"><g transform="translate(68.017339, 377.326657)"><g><path d="M 2.84375 -151.890625 L 24.90625 -151.890625 L 35.125 -60.109375 L 36.28125 -38.6875 L 38.5 -38.6875 L 40.640625 -60.109375 L 57 -151.890625 L 75.40625 -151.890625 L 91.0625 -60.109375 L 92.84375 -38.6875 L 95.15625 -38.6875 L 96.21875 -60.109375 L 105.5625 -151.890625 L 127.703125 -151.890625 L 106.453125 0 L 83.0625 0 L 70.515625 -73.015625 L 66.609375 -104.75 L 64.828125 -104.75 L 61 -73.015625 L 47.84375 0 L 24.71875 0 Z M 2.84375 -151.890625 "/></g></g></g><g fill="#ffdf2b" fill-opacity="1"><g transform="translate(216.867043, 377.326657)"><g><path d="M 12.53125 -151.890625 L 35.578125 -151.890625 L 35.578125 -88.3125 L 62.875 -88.3125 L 62.875 -151.890625 L 85.90625 -151.890625 L 85.90625 0 L 62.875 0 L 62.875 -70.171875 L 35.578125 -70.171875 L 35.578125 0 L 12.53125 0 Z M 12.53125 -151.890625 "/></g></g></g><g fill="#ffdf2b" fill-opacity="1"><g transform="translate(333.527642, 377.326657)"><g/></g></g><g fill="#ffdf2b" fill-opacity="1"><g transform="translate(391.047354, 377.326657)"><g/></g></g><g fill="#ffdf2b" fill-opacity="1"><g transform="translate(448.567066, 377.326657)"><g/></g></g><g fill="#ffdf2b" fill-opacity="1"><g transform="translate(539.83306, 376.91798)"><g><path d="M 12.53125 -151.78125 L 35.546875 -151.78125 L 35.546875 -18.125 L 66.921875 -18.125 L 66.921875 0 L 12.53125 0 Z M 12.53125 -151.78125 "/></g></g></g><g fill="#ffdf2b" fill-opacity="1"><g transform="translate(640.116442, 376.91798)"><g><path d="M 12.53125 -151.78125 L 70.5625 -151.78125 L 70.5625 -133.65625 L 35.546875 -133.65625 L 35.546875 -88.25 L 63 -88.25 L 63 -70.109375 L 35.546875 -70.109375 L 35.546875 -18.125 L 70.5625 -18.125 L 70.5625 0 L 12.53125 0 Z M 12.53125 -151.78125 "/></g></g></g><g fill="#3c570b" fill-opacity="1"><g transform="translate(313.930797, 376.752651)"><g><path d="M 86.25 1.234375 C 72.007812 1.234375 59.101562 -1.945312 47.53125 -8.3125 C 35.96875 -14.675781 26.929688 -23.40625 20.421875 -34.5 C 13.921875 -45.59375 10.671875 -58.050781 10.671875 -71.875 C 10.671875 -85.695312 13.921875 -98.15625 20.421875 -109.25 C 26.929688 -120.34375 35.96875 -129.070312 47.53125 -135.4375 C 59.101562 -141.800781 72.007812 -144.984375 86.25 -144.984375 C 100.488281 -144.984375 113.320312 -141.832031 124.75 -135.53125 C 136.1875 -129.238281 145.191406 -120.507812 151.765625 -109.34375 C 158.335938 -98.1875 161.625 -85.695312 161.625 -71.875 C 161.625 -58.050781 158.335938 -45.554688 151.765625 -34.390625 C 145.191406 -23.234375 136.1875 -14.503906 124.75 -8.203125 C 113.320312 -1.910156 100.488281 1.234375 86.25 1.234375 Z M 86.25 -12.328125 C 97.613281 -12.328125 107.878906 -14.890625 117.046875 -20.015625 C 126.222656 -25.148438 133.410156 -32.269531 138.609375 -41.375 C 143.816406 -50.476562 146.421875 -60.644531 146.421875 -71.875 C 146.421875 -83.101562 143.816406 -93.269531 138.609375 -102.375 C 133.410156 -111.476562 126.222656 -118.597656 117.046875 -123.734375 C 107.878906 -128.867188 97.613281 -131.4375 86.25 -131.4375 C 74.882812 -131.4375 64.582031 -128.867188 55.34375 -123.734375 C 46.101562 -118.597656 38.847656 -111.476562 33.578125 -102.375 C 28.304688 -93.269531 25.671875 -83.101562 25.671875 -71.875 C 25.671875 -60.644531 28.304688 -50.476562 33.578125 -41.375 C 38.847656 -32.269531 46.101562 -25.148438 55.34375 -20.015625 C 64.582031 -14.890625 74.882812 -12.328125 86.25 -12.328125 Z M 86.25 -12.328125 "/></g></g></g><g fill="#3c570b" fill-opacity="1"><g transform="translate(360.719371, 376.752651)"><g><path d="M 86.25 1.234375 C 72.007812 1.234375 59.101562 -1.945312 47.53125 -8.3125 C 35.96875 -14.675781 26.929688 -23.40625 20.421875 -34.5 C 13.921875 -45.59375 10.671875 -58.050781 10.671875 -71.875 C 10.671875 -85.695312 13.921875 -98.15625 20.421875 -109.25 C 26.929688 -120.34375 35.96875 -129.070312 47.53125 -135.4375 C 59.101562 -141.800781 72.007812 -144.984375 86.25 -144.984375 C 100.488281 -144.984375 113.320312 -141.832031 124.75 -135.53125 C 136.1875 -129.238281 145.191406 -120.507812 151.765625 -109.34375 C 158.335938 -98.1875 161.625 -85.695312 161.625 -71.875 C 161.625 -58.050781 158.335938 -45.554688 151.765625 -34.390625 C 145.191406 -23.234375 136.1875 -14.503906 124.75 -8.203125 C 113.320312 -1.910156 100.488281 1.234375 86.25 1.234375 Z M 86.25 -12.328125 C 97.613281 -12.328125 107.878906 -14.890625 117.046875 -20.015625 C 126.222656 -25.148438 133.410156 -32.269531 138.609375 -41.375 C 143.816406 -50.476562 146.421875 -60.644531 146.421875 -71.875 C 146.421875 -83.101562 143.816406 -93.269531 138.609375 -102.375 C 133.410156 -111.476562 126.222656 -118.597656 117.046875 -123.734375 C 107.878906 -128.867188 97.613281 -131.4375 86.25 -131.4375 C 74.882812 -131.4375 64.582031 -128.867188 55.34375 -123.734375 C 46.101562 -118.597656 38.847656 -111.476562 33.578125 -102.375 C 28.304688 -93.269531 25.671875 -83.101562 25.671875 -71.875 C 25.671875 -60.644531 28.304688 -50.476562 33.578125 -41.375 C 38.847656 -32.269531 46.101562 -25.148438 55.34375 -20.015625 C 64.582031 -14.890625 74.882812 -12.328125 86.25 -12.328125 Z M 86.25 -12.328125 "/></g></g></g><g fill="#ffffff" fill-opacity="1"><g transform="translate(276.245293, 637.335468)"><g><path d="M 0.6875 -36.703125 L 6.015625 -36.703125 L 8.484375 -14.53125 L 8.765625 -9.34375 L 9.296875 -9.34375 L 9.8125 -14.53125 L 13.765625 -36.703125 L 18.21875 -36.703125 L 22 -14.53125 L 22.4375 -9.34375 L 22.984375 -9.34375 L 23.25 -14.53125 L 25.5 -36.703125 L 30.859375 -36.703125 L 25.71875 0 L 20.0625 0 L 17.03125 -17.640625 L 16.09375 -25.3125 L 15.65625 -25.3125 L 14.734375 -17.640625 L 11.5625 0 L 5.96875 0 Z M 0.6875 -36.703125 "/></g></g></g><g fill="#ffffff" fill-opacity="1"><g transform="translate(313.960237, 637.335468)"><g><path d="M 2.046875 -12.125 L 2.046875 -17.703125 C 2.046875 -19.960938 2.238281 -21.835938 2.625 -23.328125 C 3.007812 -24.816406 3.519531 -26.003906 4.15625 -26.890625 C 4.789062 -27.785156 5.488281 -28.445312 6.25 -28.875 C 7.019531 -29.300781 7.785156 -29.582031 8.546875 -29.71875 C 9.304688 -29.851562 10.003906 -29.921875 10.640625 -29.921875 C 11.941406 -29.921875 13.144531 -29.644531 14.25 -29.09375 C 15.351562 -28.550781 16.234375 -27.609375 16.890625 -26.265625 C 17.554688 -24.921875 17.890625 -23.0625 17.890625 -20.6875 C 17.890625 -19.5 17.828125 -18.285156 17.703125 -17.046875 C 17.578125 -15.804688 17.40625 -14.710938 17.1875 -13.765625 L 7.5 -13.765625 L 7.5 -10.765625 C 7.5 -8.179688 7.71875 -6.359375 8.15625 -5.296875 C 8.59375 -4.242188 9.425781 -3.71875 10.65625 -3.71875 C 11.332031 -3.71875 11.941406 -4.003906 12.484375 -4.578125 C 13.023438 -5.160156 13.296875 -6.234375 13.296875 -7.796875 L 13.296875 -9.09375 L 17.765625 -9.09375 L 17.765625 -7.734375 C 17.765625 -4.929688 17.09375 -2.882812 15.75 -1.59375 C 14.414062 -0.3125 12.484375 0.328125 9.953125 0.328125 C 7.398438 0.328125 5.441406 -0.644531 4.078125 -2.59375 C 2.722656 -4.539062 2.046875 -7.71875 2.046875 -12.125 Z M 12.828125 -17.421875 C 12.859375 -17.734375 12.878906 -18.207031 12.890625 -18.84375 C 12.898438 -19.488281 12.90625 -20.003906 12.90625 -20.390625 C 12.90625 -22.347656 12.695312 -23.75 12.28125 -24.59375 C 11.875 -25.445312 11.21875 -25.878906 10.3125 -25.890625 C 9.351562 -25.890625 8.644531 -25.40625 8.1875 -24.4375 C 7.726562 -23.46875 7.5 -21.710938 7.5 -19.171875 L 7.5 -17.421875 Z M 12.828125 -17.421875 "/></g></g></g><g fill="#ffffff" fill-opacity="1"><g transform="translate(339.75347, 637.335468)"><g><path d="M 2.765625 -39.078125 L 8.203125 -39.078125 L 8.203125 0 L 2.765625 0 Z M 2.765625 -39.078125 "/></g></g></g><g fill="#ffffff" fill-opacity="1"><g transform="translate(356.890042, 637.335468)"><g><path d="M 2.765625 -39.078125 L 8.203125 -39.078125 L 8.203125 0 L 2.765625 0 Z M 2.765625 -39.078125 "/></g></g></g><g fill="#ffffff" fill-opacity="1"><g transform="translate(374.026607, 637.335468)"><g><path d="M 2.765625 -29.578125 L 6.921875 -29.578125 L 7.453125 -26.421875 L 7.453125 -26.40625 C 8.296875 -27.769531 9.253906 -28.695312 10.328125 -29.1875 C 11.410156 -29.675781 12.492188 -29.921875 13.578125 -29.921875 C 15.296875 -29.921875 16.628906 -29.3125 17.578125 -28.09375 C 18.523438 -26.882812 19 -25.078125 19 -22.671875 L 19 0 L 13.5625 0 L 13.5625 -22.015625 C 13.5625 -23.328125 13.359375 -24.234375 12.953125 -24.734375 C 12.554688 -25.242188 11.96875 -25.5 11.1875 -25.5 C 10.644531 -25.5 10.113281 -25.316406 9.59375 -24.953125 C 9.082031 -24.597656 8.617188 -24.109375 8.203125 -23.484375 L 8.203125 0 L 2.765625 0 Z M 2.765625 -29.578125 "/></g></g></g><g fill="#ffffff" fill-opacity="1"><g transform="translate(401.903452, 637.335468)"><g><path d="M 2.046875 -12.125 L 2.046875 -17.703125 C 2.046875 -19.960938 2.238281 -21.835938 2.625 -23.328125 C 3.007812 -24.816406 3.519531 -26.003906 4.15625 -26.890625 C 4.789062 -27.785156 5.488281 -28.445312 6.25 -28.875 C 7.019531 -29.300781 7.785156 -29.582031 8.546875 -29.71875 C 9.304688 -29.851562 10.003906 -29.921875 10.640625 -29.921875 C 11.941406 -29.921875 13.144531 -29.644531 14.25 -29.09375 C 15.351562 -28.550781 16.234375 -27.609375 16.890625 -26.265625 C 17.554688 -24.921875 17.890625 -23.0625 17.890625 -20.6875 C 17.890625 -19.5 17.828125 -18.285156 17.703125 -17.046875 C 17.578125 -15.804688 17.40625 -14.710938 17.1875 -13.765625 L 7.5 -13.765625 L 7.5 -10.765625 C 7.5 -8.179688 7.71875 -6.359375 8.15625 -5.296875 C 8.59375 -4.242188 9.425781 -3.71875 10.65625 -3.71875 C 11.332031 -3.71875 11.941406 -4.003906 12.484375 -4.578125 C 13.023438 -5.160156 13.296875 -6.234375 13.296875 -7.796875 L 13.296875 -9.09375 L 17.765625 -9.09375 L 17.765625 -7.734375 C 17.765625 -4.929688 17.09375 -2.882812 15.75 -1.59375 C 14.414062 -0.3125 12.484375 0.328125 9.953125 0.328125 C 7.398438 0.328125 5.441406 -0.644531 4.078125 -2.59375 C 2.722656 -4.539062 2.046875 -7.71875 2.046875 -12.125 Z M 12.828125 -17.421875 C 12.859375 -17.734375 12.878906 -18.207031 12.890625 -18.84375 C 12.898438 -19.488281 12.90625 -20.003906 12.90625 -20.390625 C 12.90625 -22.347656 12.695312 -23.75 12.28125 -24.59375 C 11.875 -25.445312 11.21875 -25.878906 10.3125 -25.890625 C 9.351562 -25.890625 8.644531 -25.40625 8.1875 -24.4375 C 7.726562 -23.46875 7.5 -21.710938 7.5 -19.171875 L 7.5 -17.421875 Z M 12.828125 -17.421875 "/></g></g></g><g fill="#ffffff" fill-opacity="1"><g transform="translate(427.696683, 637.335468)"><g><path d="M 1.390625 -6.1875 C 1.390625 -6.832031 1.453125 -7.453125 1.578125 -8.046875 C 1.703125 -8.648438 1.820312 -9.132812 1.9375 -9.5 L 5.765625 -9.5 C 5.765625 -7.351562 6.03125 -5.851562 6.5625 -5 C 7.101562 -4.144531 7.875 -3.71875 8.875 -3.71875 C 9.59375 -3.71875 10.148438 -3.9375 10.546875 -4.375 C 10.953125 -4.8125 11.15625 -5.332031 11.15625 -5.9375 C 11.15625 -6.5625 10.984375 -7.164062 10.640625 -7.75 C 10.304688 -8.34375 9.847656 -8.988281 9.265625 -9.6875 L 5.453125 -14.375 C 4.421875 -15.675781 3.5 -17.039062 2.6875 -18.46875 C 1.882812 -19.894531 1.484375 -21.46875 1.484375 -23.1875 C 1.484375 -24.71875 1.816406 -25.976562 2.484375 -26.96875 C 3.160156 -27.96875 4.050781 -28.707031 5.15625 -29.1875 C 6.257812 -29.675781 7.457031 -29.921875 8.75 -29.921875 C 10.882812 -29.921875 12.585938 -29.410156 13.859375 -28.390625 C 15.128906 -27.367188 15.765625 -25.832031 15.765625 -23.78125 C 15.765625 -23.113281 15.703125 -22.453125 15.578125 -21.796875 C 15.460938 -21.140625 15.347656 -20.582031 15.234375 -20.125 L 11.46875 -20.125 C 11.445312 -22.070312 11.21875 -23.519531 10.78125 -24.46875 C 10.351562 -25.414062 9.644531 -25.890625 8.65625 -25.890625 C 7.820312 -25.890625 7.25 -25.628906 6.9375 -25.109375 C 6.625 -24.597656 6.46875 -24.023438 6.46875 -23.390625 C 6.46875 -22.703125 6.640625 -22.082031 6.984375 -21.53125 C 7.328125 -20.988281 7.769531 -20.375 8.3125 -19.6875 L 12.609375 -14.484375 C 13.023438 -13.960938 13.503906 -13.304688 14.046875 -12.515625 C 14.597656 -11.722656 15.078125 -10.828125 15.484375 -9.828125 C 15.890625 -8.835938 16.09375 -7.757812 16.09375 -6.59375 C 16.09375 -4.519531 15.441406 -2.847656 14.140625 -1.578125 C 12.835938 -0.304688 10.972656 0.328125 8.546875 0.328125 C 7.234375 0.328125 6.03125 0.125 4.9375 -0.28125 C 3.851562 -0.695312 2.988281 -1.378906 2.34375 -2.328125 C 1.707031 -3.285156 1.390625 -4.570312 1.390625 -6.1875 Z M 1.390625 -6.1875 "/></g></g></g><g fill="#ffffff" fill-opacity="1"><g transform="translate(451.255935, 637.335468)"><g><path d="M 1.390625 -6.1875 C 1.390625 -6.832031 1.453125 -7.453125 1.578125 -8.046875 C 1.703125 -8.648438 1.820312 -9.132812 1.9375 -9.5 L 5.765625 -9.5 C 5.765625 -7.351562 6.03125 -5.851562 6.5625 -5 C 7.101562 -4.144531 7.875 -3.71875 8.875 -3.71875 C 9.59375 -3.71875 10.148438 -3.9375 10.546875 -4.375 C 10.953125 -4.8125 11.15625 -5.332031 11.15625 -5.9375 C 11.15625 -6.5625 10.984375 -7.164062 10.640625 -7.75 C 10.304688 -8.34375 9.847656 -8.988281 9.265625 -9.6875 L 5.453125 -14.375 C 4.421875 -15.675781 3.5 -17.039062 2.6875 -18.46875 C 1.882812 -19.894531 1.484375 -21.46875 1.484375 -23.1875 C 1.484375 -24.71875 1.816406 -25.976562 2.484375 -26.96875 C 3.160156 -27.96875 4.050781 -28.707031 5.15625 -29.1875 C 6.257812 -29.675781 7.457031 -29.921875 8.75 -29.921875 C 10.882812 -29.921875 12.585938 -29.410156 13.859375 -28.390625 C 15.128906 -27.367188 15.765625 -25.832031 15.765625 -23.78125 C 15.765625 -23.113281 15.703125 -22.453125 15.578125 -21.796875 C 15.460938 -21.140625 15.347656 -20.582031 15.234375 -20.125 L 11.46875 -20.125 C 11.445312 -22.070312 11.21875 -23.519531 10.78125 -24.46875 C 10.351562 -25.414062 9.644531 -25.890625 8.65625 -25.890625 C 7.820312 -25.890625 7.25 -25.628906 6.9375 -25.109375 C 6.625 -24.597656 6.46875 -24.023438 6.46875 -23.390625 C 6.46875 -22.703125 6.640625 -22.082031 6.984375 -21.53125 C 7.328125 -20.988281 7.769531 -20.375 8.3125 -19.6875 L 12.609375 -14.484375 C 13.023438 -13.960938 13.503906 -13.304688 14.046875 -12.515625 C 14.597656 -11.722656 15.078125 -10.828125 15.484375 -9.828125 C 15.890625 -8.835938 16.09375 -7.757812 16.09375 -6.59375 C 16.09375 -4.519531 15.441406 -2.847656 14.140625 -1.578125 C 12.835938 -0.304688 10.972656 0.328125 8.546875 0.328125 C 7.234375 0.328125 6.03125 0.125 4.9375 -0.28125 C 3.851562 -0.695312 2.988281 -1.378906 2.34375 -2.328125 C 1.707031 -3.285156 1.390625 -4.570312 1.390625 -6.1875 Z M 1.390625 -6.1875 "/></g></g></g><g fill="#ffffff" fill-opacity="1"><g transform="translate(474.815199, 637.335468)"><g/></g></g><g fill="#ffffff" fill-opacity="1"><g transform="translate(490.469618, 637.335468)"><g><path d="M 3.03125 -36.703125 L 8.59375 -36.703125 L 8.59375 -21.328125 L 15.1875 -21.328125 L 15.1875 -36.703125 L 20.75 -36.703125 L 20.75 0 L 15.1875 0 L 15.1875 -16.953125 L 8.59375 -16.953125 L 8.59375 0 L 3.03125 0 Z M 3.03125 -36.703125 "/></g></g></g><g fill="#ffffff" fill-opacity="1"><g transform="translate(520.408596, 637.335468)"><g><path d="M 2.734375 -29.578125 L 8.171875 -29.578125 L 8.171875 -7.828125 C 8.171875 -6.515625 8.367188 -5.601562 8.765625 -5.09375 C 9.171875 -4.59375 9.757812 -4.34375 10.53125 -4.34375 C 11.675781 -4.34375 12.671875 -4.921875 13.515625 -6.078125 L 13.515625 -29.578125 L 18.953125 -29.578125 L 18.953125 0 L 14.796875 0 L 14.265625 -3.15625 L 14.25 -3.15625 C 13.40625 -1.8125 12.445312 -0.890625 11.375 -0.390625 C 10.3125 0.0976562 9.234375 0.34375 8.140625 0.34375 C 6.421875 0.34375 5.085938 -0.257812 4.140625 -1.46875 C 3.203125 -2.675781 2.734375 -4.492188 2.734375 -6.921875 Z M 2.734375 -29.578125 "/></g></g></g><g fill="#ffffff" fill-opacity="1"><g transform="translate(548.285441, 637.335468)"><g><path d="M 2.765625 -39.078125 L 8.203125 -39.078125 L 8.203125 -31.203125 L 8.03125 -27.28125 L 8.0625 -27.265625 C 8.5625 -27.953125 9.210938 -28.5625 10.015625 -29.09375 C 10.816406 -29.632812 11.804688 -29.90625 12.984375 -29.90625 C 13.441406 -29.90625 14.007812 -29.816406 14.6875 -29.640625 C 15.363281 -29.460938 16.039062 -29.039062 16.71875 -28.375 C 17.40625 -27.707031 17.976562 -26.65625 18.4375 -25.21875 C 18.894531 -23.789062 19.125 -21.816406 19.125 -19.296875 L 19.125 -10.328125 C 19.125 -7.828125 18.890625 -5.851562 18.421875 -4.40625 C 17.953125 -2.96875 17.367188 -1.910156 16.671875 -1.234375 C 15.984375 -0.554688 15.285156 -0.125 14.578125 0.0625 C 13.867188 0.25 13.265625 0.34375 12.765625 0.34375 C 11.367188 0.34375 10.257812 0.0234375 9.4375 -0.609375 C 8.613281 -1.242188 7.960938 -1.957031 7.484375 -2.75 L 7.03125 0 L 2.765625 0 Z M 8.203125 -6.375 C 8.453125 -5.832031 8.785156 -5.34375 9.203125 -4.90625 C 9.628906 -4.46875 10.203125 -4.25 10.921875 -4.25 C 11.441406 -4.25 11.90625 -4.390625 12.3125 -4.671875 C 12.726562 -4.960938 13.050781 -5.5 13.28125 -6.28125 C 13.519531 -7.0625 13.640625 -8.179688 13.640625 -9.640625 L 13.640625 -20.125 C 13.640625 -21.601562 13.523438 -22.722656 13.296875 -23.484375 C 13.066406 -24.253906 12.75 -24.78125 12.34375 -25.0625 C 11.9375 -25.351562 11.46875 -25.5 10.9375 -25.5 C 10.28125 -25.5 9.726562 -25.300781 9.28125 -24.90625 C 8.832031 -24.519531 8.472656 -24.050781 8.203125 -23.5 Z M 8.203125 -6.375 "/></g></g></g><path stroke-linecap="butt" transform="matrix(0.75, 0, 0, 0.75, 244.91479, 578.816943)" fill="none" stroke-linejoin="miter" d="M -0.000970505 1.999285 L 471.592803 1.999285 " stroke="#ffffff" stroke-width="4" stroke-opacity="1" stroke-miterlimit="4"/></svg>