<svg width="34" height="35" viewBox="0 0 34 35" fill="none" xmlns="http://www.w3.org/2000/svg">
<path d="M16.9999 29.057C19.5637 29.057 22.0221 28.8037 24.3006 28.3393C27.1465 27.7592 28.5696 27.469 29.8681 25.7995C31.1666 24.1299 31.1666 22.2135 31.1666 18.3803V15.6503C31.1666 11.8172 31.1666 9.90062 29.8681 8.23107C28.5696 6.56155 27.1465 6.27148 24.3006 5.69134C22.0221 5.22689 19.5637 4.97363 16.9999 4.97363C14.4362 4.97363 11.9777 5.22689 9.69921 5.69134C6.85327 6.27148 5.4303 6.56155 4.13177 8.23107C2.83325 9.90062 2.83325 11.8172 2.83325 15.6503V18.3803C2.83325 22.2135 2.83325 24.1299 4.13177 25.7995C5.4303 27.469 6.85327 27.7592 9.69921 28.3393C11.9777 28.8037 14.4362 29.057 16.9999 29.057Z" stroke="#F8BE52" stroke-width="1.5"/>
<path d="M22.613 17.4582C22.4027 18.3165 21.2841 18.9329 19.0469 20.1658C16.6135 21.5065 15.3969 22.177 14.4115 21.9188C14.0777 21.8312 13.7703 21.6774 13.5122 21.4687C12.75 20.8526 12.75 19.5733 12.75 17.015C12.75 14.4566 12.75 13.1774 13.5122 12.5612C13.7703 12.3525 14.0777 12.1987 14.4115 12.1112C15.3969 11.8529 16.6135 12.5234 19.0469 13.8642C21.2841 15.0971 22.4027 15.7135 22.613 16.5717C22.6845 16.8638 22.6845 17.1661 22.613 17.4582Z" stroke="#F8BE52" stroke-width="1.5" stroke-linejoin="round"/>
</svg>
