<svg width="140" height="141" viewBox="0 0 140 141" fill="none" xmlns="http://www.w3.org/2000/svg">
<circle cx="70" cy="70" r="70" fill="#778854"/>
<g clip-path="url(#clip0_27_662)">
<path d="M50.6641 80.4297V82.0867L52.3188 82.184C59.9695 82.636 66.2318 77.8701 70 71.1555C73.7291 77.8005 79.9696 82.637 87.6813 82.184L89.3359 82.0867V80.4297C89.3359 69.6226 84.2922 66.0004 80.2398 63.0894C79.2156 62.3547 78.2816 61.682 77.5059 60.9508C75.3449 63.3285 72.7504 64.6094 70 64.6094C67.252 64.6094 64.6586 63.3285 62.4977 60.9484C61.7207 61.6808 60.7855 62.3535 59.7602 63.0894C55.7078 66.0004 50.6641 69.6226 50.6641 80.4297Z" fill="#EBF1E3"/>
<path d="M70 61.0938C75.1593 61.0938 78.7891 53.4176 78.7891 48.7891C78.7891 43.9428 74.8463 40 70 40C65.1537 40 61.2109 43.9428 61.2109 48.7891C61.2109 53.4224 64.8542 61.0938 70 61.0938ZM96.4844 69.8828C96.4844 73.3478 95.8231 76.7152 94.519 79.8911L97.7712 81.2264C99.2502 77.6247 100 73.8081 100 69.8828C100 59.022 94.0935 49.0009 84.5855 43.7302L82.881 46.805C91.2719 51.4564 96.4844 60.2993 96.4844 69.8828ZM45.481 79.8911C44.1769 76.7152 43.5156 73.3478 43.5156 69.8828C43.5156 60.2993 48.7281 51.4564 57.119 46.805L55.4145 43.7302C45.9065 49.0009 40 59.022 40 69.8828C40 73.8081 40.7499 77.6247 42.2288 81.2264L45.481 79.8911ZM96.5997 86.1926C96.2787 86.2318 80.819 82.5606 70.0014 95.3861C59.1013 82.4134 43.8434 86.2466 43.4003 86.1926C43.4127 86.2196 43.7269 92.3518 48.1132 96.4844H40V100H100V96.4844H91.7911C96.3743 92.3515 96.3768 87.0077 96.5997 86.1926Z" fill="#EBF1E3"/>
<path d="M69.9999 77.2199C67.3491 80.3473 64.791 82.6423 60.9671 84.2078C60.9296 84.2828 60.8909 84.3566 60.8511 84.4305C63.9345 85.639 67.1812 87.6441 70.0093 90.2887C72.8527 87.6497 76.1821 85.6253 79.1733 84.4785C79.1265 84.3894 79.0784 84.2992 79.0327 84.2078C75.2317 82.6517 72.6639 80.3679 69.9999 77.2199Z" fill="#EBF1E3"/>
</g>
<defs>
<clipPath id="clip0_27_662">
<rect width="60" height="60" fill="white" transform="translate(40 40)"/>
</clipPath>
</defs>
</svg>
