<svg width="25" height="25" viewBox="0 0 25 25" fill="none" xmlns="http://www.w3.org/2000/svg">
<path d="M2.66675 6.01514L9.57977 9.93211C12.1283 11.3761 13.2051 11.3761 15.7537 9.93211L22.6667 6.01514" stroke="#556541" stroke-width="1.5" stroke-linejoin="round"/>
<path d="M2.68252 13.4907C2.74789 16.5563 2.78058 18.089 3.91171 19.2245C5.04283 20.3599 6.61708 20.3994 9.76558 20.4785C11.706 20.5273 13.6274 20.5273 15.5679 20.4785C18.7164 20.3994 20.2906 20.3599 21.4218 19.2245C22.5529 18.089 22.5856 16.5563 22.6509 13.4907C22.672 12.505 22.672 11.5252 22.6509 10.5395C22.5856 7.474 22.5529 5.94123 21.4218 4.8058C20.2906 3.67037 18.7164 3.63082 15.5679 3.55171C13.6274 3.50295 11.706 3.50295 9.76557 3.5517C6.61708 3.6308 5.04283 3.67035 3.9117 4.80579C2.78057 5.94122 2.74789 7.47399 2.68251 10.5395C2.66149 11.5252 2.6615 12.505 2.68252 13.4907Z" stroke="#556541" stroke-width="1.5" stroke-linejoin="round"/>
</svg>
