<svg width="140" height="141" viewBox="0 0 140 141" fill="none" xmlns="http://www.w3.org/2000/svg">
<circle cx="70" cy="70" r="70" fill="#778854"/>
<g clip-path="url(#clip0_27_652)">
<path d="M98.1859 55.2156C96.6109 49.4184 90.5816 43.3879 84.7832 41.8129C81.2277 40.927 76.4652 40.0141 70 40C63.5348 40.0152 58.7723 40.9281 55.2168 41.8141C49.4195 43.3879 43.3891 49.4184 41.8141 55.2156C40.9281 58.7711 40.0152 63.5336 40 70C40.0164 76.4652 40.9293 81.2277 41.8152 84.7832C43.3902 90.5816 49.4207 96.6109 55.218 98.1859C58.7734 99.0719 63.5383 99.9848 70.0012 100.001C76.4652 99.9848 81.2289 99.0719 84.7844 98.1859C90.5828 96.6109 96.6121 90.5816 98.1871 84.7832C99.073 81.2277 99.9859 76.4629 100.001 70C99.9848 63.5336 99.0719 58.7711 98.1859 55.2156ZM80.3734 79.518C79.1352 79.5154 77.9102 79.2626 76.772 78.7749C75.6338 78.2872 74.6059 77.5745 73.75 76.6797L63.5008 65.8984C62.9942 65.368 62.3856 64.9455 61.7116 64.6563C61.0375 64.3671 60.312 64.2172 59.5785 64.2156C58.0453 64.2156 56.575 64.8247 55.4908 65.9088C54.4067 66.9929 53.7977 68.4633 53.7977 69.9965C53.7977 71.5297 54.4067 73 55.4908 74.0842C56.575 75.1683 58.0453 75.7773 59.5785 75.7773H62.2363L60.8055 74.3465C60.462 73.9946 60.271 73.5215 60.2739 73.0298C60.2768 72.538 60.4734 72.0673 60.821 71.7195C61.1687 71.3717 61.6394 71.1749 62.1311 71.1718C62.6228 71.1686 63.096 71.3594 63.448 71.7027L67.8297 76.0938C68.1789 76.4451 68.3749 76.9203 68.3749 77.4156C68.3749 77.911 68.1789 78.3862 67.8297 78.7375L63.448 83.118C63.2761 83.2985 63.0698 83.4428 62.8413 83.5424C62.6127 83.642 62.3666 83.6949 62.1173 83.6979C61.868 83.7009 61.6207 83.6541 61.3898 83.5601C61.1589 83.4661 60.9491 83.3269 60.7728 83.1506C60.5966 82.9743 60.4573 82.7645 60.3633 82.5337C60.2693 82.3028 60.2225 82.0554 60.2255 81.8061C60.2286 81.5568 60.2814 81.3107 60.381 81.0822C60.4806 80.8536 60.6249 80.6473 60.8055 80.4754L61.757 79.5238H59.5785C57.0542 79.5238 54.6333 78.521 52.8483 76.7361C51.0633 74.9511 50.0605 72.5302 50.0605 70.0059C50.0605 67.4815 51.0633 65.0606 52.8483 63.2756C54.6333 61.4907 57.0542 60.4879 59.5785 60.4879C60.8184 60.4903 62.045 60.7435 63.1844 61.2323C64.3239 61.721 65.3527 62.4353 66.209 63.332L76.4559 74.1016C76.9624 74.632 77.571 75.0545 78.2451 75.3437C78.9191 75.6329 79.6447 75.7828 80.3781 75.7844C81.9113 75.7844 83.3817 75.1753 84.4658 74.0912C85.5499 73.0071 86.159 71.5367 86.159 70.0035C86.159 68.4703 85.5499 67 84.4658 65.9158C83.3817 64.8317 81.9113 64.2227 80.3781 64.2227H77.7203L79.1523 65.6547C79.4957 66.0067 79.6865 66.4799 79.6833 66.9716C79.6802 67.4634 79.4834 67.9341 79.1356 68.2817C78.7878 68.6293 78.317 68.8259 77.8253 68.8288C77.3336 68.8317 76.8605 68.6408 76.5086 68.2973L72.127 63.9156C71.7781 63.5644 71.5823 63.0894 71.5823 62.5943C71.5823 62.0993 71.7781 61.6243 72.127 61.273L76.5086 56.8914C76.6813 56.7143 76.8875 56.5732 77.1152 56.4764C77.3428 56.3796 77.5874 56.3289 77.8348 56.3273C78.0822 56.3258 78.3274 56.3733 78.5563 56.4672C78.7852 56.5611 78.9931 56.6996 79.1681 56.8745C79.3431 57.0494 79.4816 57.2572 79.5756 57.4861C79.6696 57.7149 79.7173 57.9601 79.7158 58.2075C79.7144 58.4549 79.6638 58.6995 79.5671 58.9272C79.4703 59.1549 79.3294 59.3612 79.1523 59.534L78.2031 60.482H80.3816C82.906 60.482 85.3269 61.4848 87.1119 63.2698C88.8968 65.0547 89.8996 67.4757 89.8996 70C89.8996 72.5243 88.8968 74.9453 87.1119 76.7302C85.3269 78.5152 82.906 79.518 80.3816 79.518H80.3734Z" fill="#EBF1E3"/>
</g>
<defs>
<clipPath id="clip0_27_652">
<rect width="60" height="60" fill="white" transform="translate(40 40)"/>
</clipPath>
</defs>
</svg>
