<svg width="34" height="35" viewBox="0 0 34 35" fill="none" xmlns="http://www.w3.org/2000/svg">
<path d="M3.54163 17.015C3.54163 10.6707 3.54163 7.4985 5.51255 5.52756C7.48349 3.55664 10.6556 3.55664 17 3.55664C23.3442 3.55664 26.5164 3.55664 28.4874 5.52756C30.4583 7.4985 30.4583 10.6707 30.4583 17.015C30.4583 23.3592 30.4583 26.5314 28.4874 28.5024C26.5164 30.4733 23.3442 30.4733 17 30.4733C10.6556 30.4733 7.48349 30.4733 5.51255 28.5024C3.54163 26.5314 3.54163 23.3592 3.54163 17.015Z" stroke="#F8BE52" stroke-width="1.5" stroke-linejoin="round"/>
<path d="M23.9792 11.3857H19.8073C18.3286 11.3857 17.1267 12.5787 17.1157 14.0575L16.9949 30.3697M14.2828 19.8508H21.0867" stroke="#F8BE52" stroke-width="1.5" stroke-linecap="round" stroke-linejoin="round"/>
</svg>
