<svg width="1440" height="319" viewBox="0 0 1440 319" fill="none" xmlns="http://www.w3.org/2000/svg">
<mask id="mask0_214_880" style="mask-type:luminance" maskUnits="userSpaceOnUse" x="0" y="0" width="401" height="320">
<path d="M400.488 0.0151367L7.26991e-05 0.0151017L4.47401e-05 319.829L400.488 319.829L400.488 0.0151367Z" fill="white"/>
</mask>
<g mask="url(#mask0_214_880)">
<path d="M-10.8747 332.634C22.3493 298.927 68.668 280.216 115.575 273.912C162.481 267.61 210.227 272.887 256.724 281.718C287.161 287.499 318.663 294.791 348.703 287.207C329.268 310.188 305.803 321.439 277.115 330.543C248.428 339.646 218.217 342.862 188.176 344.694C119.832 348.862 56.9173 342.25 -10.8747 332.634Z" fill="#556541"/>
</g>
<mask id="mask1_214_880" style="mask-type:luminance" maskUnits="userSpaceOnUse" x="0" y="0" width="401" height="320">
<path d="M400.488 0.0151367L7.26991e-05 0.0151017L4.47401e-05 319.829L400.488 319.829L400.488 0.0151367Z" fill="white"/>
</mask>
<g mask="url(#mask1_214_880)">
<mask id="mask2_214_880" style="mask-type:luminance" maskUnits="userSpaceOnUse" x="-11" y="271" width="360" height="75">
<path d="M-10.8747 332.634C22.3493 298.927 68.668 280.216 115.575 273.912C162.481 267.61 210.227 272.887 256.724 281.718C287.161 287.498 318.663 294.791 348.703 287.207C329.268 310.188 305.803 321.44 277.115 330.543C248.428 339.646 218.217 342.862 188.176 344.694C119.832 348.862 56.9173 342.25 -10.8747 332.634Z" fill="white"/>
</mask>
<g mask="url(#mask2_214_880)">
<path d="M356.849 285.703L358.092 290.434C296.909 306.523 233.733 317.159 170.32 322.05C106.905 326.938 42.8454 326.112 -20.0799 319.591L-19.576 314.724C43.0587 321.215 106.821 322.038 169.944 317.171C233.065 312.304 295.949 301.716 356.849 285.703Z" fill="#192314"/>
</g>
</g>
<mask id="mask3_214_880" style="mask-type:luminance" maskUnits="userSpaceOnUse" x="0" y="0" width="401" height="320">
<path d="M400.488 0.0151367L7.26991e-05 0.0151017L4.47401e-05 319.829L400.488 319.829L400.488 0.0151367Z" fill="white"/>
</mask>
<g mask="url(#mask3_214_880)">
<path d="M-72.3267 314.149C-63.0814 326.479 -56.5614 335.919 -53.5201 350.609C-53.1921 344.971 -46.524 340.693 -40.7987 337.083C-26.2507 327.913 -15.7227 315.65 -5.2174 303.327C-8.8494 305.267 -12.4894 305.049 -14.9827 302.569C8.04397 293.694 23.9746 272.419 23.4813 252.441C20.1946 253.385 16.7226 254.342 13.476 253.849C10.2306 253.354 9.52128 251.029 10.4879 248.293C23.2053 247.375 35.852 240.839 42.8773 231.553C49.9013 222.265 50.42 210.603 45.2307 201.569C40.2227 205.589 32.1533 204.789 29.7213 199.942C38.8426 199.189 51.6066 195.326 53.3813 187.858C55.6266 178.411 57.196 168.777 57.2906 159.341C56.0693 163.201 52.1133 166.614 47.4613 167.819C42.812 169.025 39.6346 167.69 36.6733 164.914C54.4853 159.215 66.6987 143.155 65.6693 128.137C63.2427 132.265 58.1133 135.413 52.7493 136.069C47.3853 136.725 43.6573 134.245 40.8373 130.758C49.5946 131.257 59.0867 127.261 64.264 120.894C69.4413 114.529 67.8293 105.614 63.5387 99.6259C59.868 105.638 51.876 107.763 44.896 105.411C52.2226 103.522 58.696 98.7179 61.7867 92.8753C64.8787 87.0326 66.4306 79.7779 62.7493 74.7766C55.3893 76.4912 48.2893 76.5459 40.9307 78.2606C45.632 75.0379 52.396 71.4593 57.0986 68.2366C52.1026 33.1473 27.44 20.1846 27.44 20.1846C7.53198 35.9606 -4.96536 55.0739 -4.96536 55.0739C-4.96536 55.0739 0.382663 67.2926 8.45866 71.4952C1.90533 73.3619 -4.9867 70.7606 -8.24003 66.2219C-12.0374 73.3539 -16.9174 81.6152 -16.7294 89.0699C-16.54 96.5232 -10.9934 103.982 -2.03736 104.698C-11.1507 111.017 -22.396 111.122 -30.0294 104.941C-33.696 112.359 -34.356 120.75 -31.1747 127.719C-27.9933 134.69 -21.3827 140.313 -13.0347 143.15C-21.1107 147.691 -32.3747 146.069 -36.728 139.702C-39.2373 148.542 -42.456 157.617 -42.0734 166.437C-41.844 171.731 -33.7867 173.738 -27.3934 174.158C-28.468 177.923 -32.6227 181.811 -36.8973 183.615C-41.1733 185.418 -46.2787 185.506 -50.1893 183.843C-51.3213 190.398 -51.516 198.55 -48.7893 204.438C-46.0627 210.325 -38.1533 214.745 -30.428 212.439C-33.2147 216.441 -38.2014 220.939 -43.5187 222.045C-48.836 223.15 -54.4654 222.25 -58.4534 219.658C-59.6134 226.289 -60.5387 232.342 -58.9481 238.67C-57.3574 244.998 -52.4547 250.889 -44.856 252.447C-51.0987 252.655 -58.4614 253.018 -64.704 253.225C-69.4107 259.931 -69 266.985 -67.1934 274.051C-65.3867 281.119 -60.1253 287.266 -52.7747 290.897C-59.2693 288.311 -68.3547 287.879 -75.8893 289.034C-80.412 299.083 -78.628 305.743 -72.3267 314.149Z" fill="#556541"/>
</g>
<mask id="mask4_214_880" style="mask-type:luminance" maskUnits="userSpaceOnUse" x="0" y="0" width="401" height="320">
<path d="M400.488 0.0151367L7.26991e-05 0.0151017L4.47401e-05 319.829L400.488 319.829L400.488 0.0151367Z" fill="white"/>
</mask>
<g mask="url(#mask4_214_880)">
<mask id="mask5_214_880" style="mask-type:luminance" maskUnits="userSpaceOnUse" x="-79" y="20" width="147" height="331">
<path d="M-72.3266 314.149C-63.0826 326.479 -56.5613 335.919 -53.52 350.609C-53.192 344.971 -46.524 340.693 -40.7987 337.083C-26.2507 327.913 -15.7227 315.65 -5.21734 303.327C-8.84934 305.267 -12.4893 305.049 -14.9826 302.569C8.04403 293.694 23.9747 272.419 23.4814 252.441C20.1947 253.385 16.7214 254.342 13.476 253.849C10.2307 253.354 9.52134 251.029 10.488 248.293C23.2053 247.375 35.8521 240.838 42.8774 231.553C49.9014 222.265 50.42 210.603 45.2307 201.569C40.2227 205.589 32.1533 204.789 29.7213 199.942C38.8427 199.189 51.6067 195.326 53.3814 187.858C55.6267 178.411 57.1947 168.777 57.2907 159.341C56.0693 163.201 52.112 166.614 47.4614 167.819C42.812 169.025 39.6347 167.69 36.6734 164.914C54.4867 159.215 66.6987 143.155 65.6694 128.137C63.2427 132.265 58.1133 135.413 52.7493 136.069C47.3853 136.725 43.6574 134.245 40.8374 130.758C49.5947 131.257 59.0867 127.261 64.2641 120.894C69.4414 114.529 67.8307 105.614 63.5374 99.6259C59.868 105.638 51.876 107.765 44.896 105.411C52.2227 103.522 58.696 98.7179 61.7867 92.8753C64.8787 87.0326 66.4307 79.7779 62.7493 74.7766C55.3893 76.4912 48.2894 76.5459 40.9307 78.2606C45.6321 75.0379 52.396 71.4593 57.0987 68.2366C52.1027 33.1473 27.44 20.1846 27.44 20.1846C7.53204 35.9606 -4.9653 55.0739 -4.9653 55.0739C-4.9653 55.0739 0.382724 67.2926 8.45872 71.4966C1.90539 73.3619 -4.98664 70.7606 -8.23997 66.2219C-12.0373 73.3539 -16.9186 81.6152 -16.7293 89.0699C-16.54 96.5232 -10.9933 103.982 -2.03731 104.698C-11.1506 111.017 -22.396 111.122 -30.0293 104.941C-33.696 112.359 -34.3559 120.75 -31.1746 127.719C-27.9933 134.69 -21.3826 140.313 -13.0346 143.15C-21.1106 147.691 -32.3746 146.069 -36.7279 139.702C-39.2373 148.542 -42.456 157.617 -42.0733 166.438C-41.844 171.731 -33.7866 173.739 -27.3933 174.158C-28.468 177.923 -32.6226 181.811 -36.8973 183.615C-41.1733 185.418 -46.2786 185.506 -50.1893 183.843C-51.3213 190.398 -51.5159 198.55 -48.7893 204.438C-46.0626 210.325 -38.1533 214.745 -30.4279 212.439C-33.2146 216.441 -38.2013 220.939 -43.5186 222.045C-48.836 223.15 -54.4653 222.25 -58.4533 219.658C-59.6133 226.289 -60.5387 232.342 -58.948 238.67C-57.3573 244.998 -52.4546 250.889 -44.8573 252.447C-51.0986 252.655 -58.4613 253.018 -64.704 253.225C-69.4107 259.931 -69 266.985 -67.1933 274.051C-65.3866 281.119 -60.124 287.266 -52.7733 290.897C-59.2693 288.311 -68.3559 287.879 -75.8893 289.034C-80.4119 299.083 -78.628 305.745 -72.3266 314.149Z" fill="white"/>
</mask>
<g mask="url(#mask5_214_880)">
<path d="M26.0747 19.9726C26.4001 28.1926 26.5614 36.4179 26.5614 44.6432C26.5614 153.371 -1.69067 262.045 -54.8867 356.887C-55.1933 357.434 -54.9986 358.126 -54.452 358.434C-53.9053 358.739 -53.2133 358.546 -52.9067 357.998C0.48134 262.809 28.8307 153.765 28.832 44.6432C28.832 36.3885 28.6694 28.1326 28.3427 19.8832C28.3187 19.2566 27.7907 18.7686 27.1641 18.7939C26.5374 18.8192 26.0494 19.3459 26.0747 19.9726Z" fill="#192314"/>
</g>
</g>
<mask id="mask6_214_880" style="mask-type:luminance" maskUnits="userSpaceOnUse" x="0" y="0" width="401" height="320">
<path d="M400.488 0.0151367L6.10352e-05 0.0151017L3.30762e-05 319.829L400.488 319.829L400.488 0.0151367Z" fill="white"/>
</mask>
<g mask="url(#mask6_214_880)">
<path d="M133.44 201.639C90.684 268.218 27.8414 322.358 -45.5106 354.977C-49.0173 356.537 -53.1239 354.958 -54.6826 351.451C-56.2413 347.946 -54.664 343.839 -51.1573 342.281C21.2534 314.294 85.7667 264.479 131.523 200.341C131.895 199.821 132.617 199.699 133.139 200.071C133.643 200.431 133.771 201.123 133.44 201.639Z" fill="#778854"/>
<path d="M129.245 203.915C130.172 194.789 131.095 185.574 131.643 176.426C131.943 172.395 132.18 166.878 132.163 162.837C132.097 156.931 131.993 150.527 131.724 144.623C131.492 139.987 131.107 135.375 130.837 130.722C130.805 130.287 131.468 130.111 131.637 130.533C132.948 133.405 134.02 136.371 134.969 139.389C136.756 145.359 138.02 151.797 138.511 158.01L138.724 162.759L138.724 167.514L138.552 172.267L138.171 177.007C137.669 181.575 136.579 186.525 135.315 190.961C133.924 195.501 132.259 199.957 130.036 204.153C129.839 204.545 129.184 204.367 129.245 203.915Z" fill="#778854"/>
<path d="M132.203 200.686C135.053 195.323 138.828 190.61 142.967 186.266C145.635 183.659 148.359 180.662 150.712 177.759C153.119 174.842 155.649 171.794 157.908 168.743C159.077 167.13 160.201 165.501 161.413 163.878C161.553 163.678 161.835 163.633 162.027 163.785C162.145 163.877 162.201 164.021 162.191 164.158C161.932 167.269 161.136 170.302 160.063 173.234C158.287 178.047 155.312 182.557 151.98 186.45C149.447 189.491 146.572 192.778 143.364 195.106C140.052 197.561 136.627 199.715 132.761 201.294C132.403 201.449 132.012 201.033 132.203 200.686Z" fill="#778854"/>
<path d="M115.453 225.615C116.149 217.553 116.579 209.477 116.533 201.391C116.527 193.386 116.871 185.291 115.373 177.379C114.767 173.843 113.913 170.339 113.357 166.791C112.557 161.413 112.208 156.037 112.04 150.563C111.965 146.897 111.973 143.198 112.421 139.397C112.456 139.002 113.043 138.861 113.231 139.231C117.664 147.471 120.448 156.385 121.828 165.578C122.52 170.875 122.416 176.847 122.708 182.207C122.988 187.737 123.471 193.362 123.201 198.907C122.947 204.467 121.952 210.13 120.385 215.463C119.371 219.053 117.947 222.541 116.245 225.853C116.045 226.238 115.396 226.089 115.453 225.615Z" fill="#778854"/>
<path d="M93.7361 247.912C95.2601 240.408 95.9694 233.156 96.2121 225.804C96.3788 219.243 96.9894 210.183 96.2574 203.731C95.8601 199.152 94.6668 194.587 93.6868 190.099C92.5921 185.6 92.0081 181.016 91.3001 176.444C90.5361 170.779 89.6495 165.195 89.4081 159.431C89.3935 159.19 89.5841 158.979 89.8294 158.974C89.9721 158.971 90.1014 159.039 90.1828 159.144C91.3801 160.723 92.4308 162.378 93.4508 164.054C94.6695 166.146 95.7321 168.376 96.7574 170.568C99.2174 176.372 101.176 182.424 101.932 188.7C102.648 197.395 103.048 206.084 103.448 214.807C103.701 226.287 101.115 238.718 94.4881 248.252C94.3561 248.443 94.0935 248.49 93.9028 248.358C93.7575 248.254 93.6961 248.076 93.7361 247.912Z" fill="#778854"/>
<path d="M72.9934 267.986C74.6987 253.623 75.3667 238.421 75.2854 223.954C75.2774 215.795 74.2841 207.001 73.6094 198.902C72.8881 188.301 72.1027 177.746 71.9601 167.094C71.9574 166.687 72.5694 166.511 72.7588 166.898C74.8641 170.746 76.5227 174.793 77.9601 178.93C80.0174 185.121 81.5547 191.493 82.4601 197.958C83.3187 204.418 83.3547 210.946 83.4907 217.449C83.7174 230.289 82.7907 243.657 80.2267 256.237C79.4667 259.891 78.2027 265.298 77.132 268.845C76.3814 271.31 72.7014 270.583 72.9934 267.986Z" fill="#778854"/>
<path d="M59.7148 276.617C63.1108 258.55 63.8934 240.041 62.9894 221.719C62.0961 209.519 61.4428 197.205 60.9401 184.985C60.8468 182.911 60.7441 180.831 60.7695 178.715C60.7615 178.285 61.4161 178.134 61.5775 178.551C67.2601 192.057 69.8921 206.871 69.8614 221.505C70.0894 240.294 67.7721 259.129 63.7001 277.433C63.0814 279.95 59.3014 279.255 59.7148 276.617Z" fill="#778854"/>
<path d="M40.7588 295.792C43.6735 287.424 44.8215 278.359 45.6868 269.523C46.4775 260.57 46.6308 251.57 46.4908 242.616C46.3774 234.819 45.1348 223.807 44.5082 215.948C43.7268 207.08 42.5628 198.35 40.4561 189.415C40.4015 189.188 40.5401 188.959 40.7655 188.904C40.9335 188.864 41.1055 188.934 41.2041 189.063C44.0001 192.818 46.0761 197.08 47.7468 201.45C51.0241 210.188 52.7868 219.471 53.1175 228.767C53.5121 242.608 52.7188 256.472 50.4948 270.122C48.9681 279.256 47.2081 288.33 43.5494 296.938C43.2161 297.702 42.3268 298.05 41.5628 297.718C40.8188 297.394 40.4708 296.539 40.7588 295.792Z" fill="#778854"/>
<path d="M22.2748 307.893C26.5041 300.929 27.6841 292.586 28.5174 284.562C29.2521 276.268 28.7281 267.878 28.3108 259.558C27.8028 251.224 26.4975 242.989 25.9695 234.654L23.9508 209.353C23.9321 209.118 24.1081 208.913 24.3428 208.893C24.5028 208.881 24.6508 208.959 24.7335 209.086C27.1428 212.783 28.9561 216.799 30.4854 220.889C33.4774 229.067 35.4121 237.634 35.9641 246.315C36.7815 259.326 36.2241 272.342 34.1988 285.238C32.8188 294.013 31.1041 302.705 26.4094 310.55C24.6108 313.306 20.5028 310.713 22.2748 307.893Z" fill="#778854"/>
<path d="M13.9174 309.719C11.0761 294.812 8.50142 279.884 6.03609 264.936C4.89743 257.479 3.29204 250.082 2.91337 242.531C2.47871 234.946 2.27075 227.316 2.98942 219.716C3.01875 219.303 3.6481 219.182 3.80543 219.586C8.21743 230.184 10.6934 241.459 11.7294 252.839C12.6001 264.116 13.4308 275.418 14.5748 286.654C15.4561 294.124 16.4267 301.584 17.9227 308.922C18.3894 311.558 14.5307 312.394 13.9174 309.719Z" fill="#778854"/>
<path d="M0.961453 319.664C-0.457213 304.071 -3.83324 288.707 -8.0319 273.636C-11.2332 262.743 -15.2252 250.786 -18.5212 239.851C-19.7279 236.055 -20.9412 232.271 -22.0252 228.416C-22.0852 228.192 -21.9532 227.963 -21.7292 227.903C-21.5559 227.856 -21.3772 227.927 -21.2786 228.066C-18.9559 231.352 -16.8813 234.795 -14.9173 238.31C-12.1453 243.391 -9.3559 249.268 -7.22923 254.655C-4.35457 262.156 -2.1532 269.898 -0.0972026 277.658C3.30546 291.319 5.56946 305.304 5.83346 319.415C5.85346 320.763 4.77612 321.871 3.42812 321.891C2.14012 321.91 1.07079 320.926 0.961453 319.664Z" fill="#778854"/>
<path d="M127.092 208.462C138.829 203.818 151.896 202.411 164.431 203.586L169.16 204.074L173.863 204.777C179.992 205.903 186.267 207.822 192.021 210.211C194.924 211.466 197.765 212.838 200.488 214.437C200.868 214.649 200.665 215.293 200.217 215.214C191.179 213.626 182.029 212.131 172.916 211.111C168.905 210.61 163.407 210.085 159.369 209.893C153.472 209.667 147.077 209.425 141.173 209.321C138.1 209.298 135.028 209.303 131.937 209.289C130.383 209.306 128.821 209.33 127.233 209.273C126.804 209.271 126.671 208.61 127.092 208.462Z" fill="#778854"/>
<path d="M112.75 226.702C121.434 223.302 130.974 222.087 140.267 222.551C145.811 222.855 151.356 223.912 156.827 224.759C162.134 225.603 168.072 226.11 173.279 227.344C182.283 229.662 190.859 233.347 198.602 238.603C198.93 238.827 198.771 239.403 198.355 239.392C194.527 239.447 190.847 239.075 187.207 238.624C181.78 237.894 176.468 236.994 171.202 235.644C167.728 234.728 164.331 233.519 160.876 232.551C154.008 230.53 146.858 229.843 139.759 229.214C134.488 228.65 129.091 228.131 123.798 227.856C122.195 227.742 120.01 227.724 118.395 227.647C116.57 227.576 114.747 227.631 112.874 227.512C112.447 227.499 112.33 226.843 112.75 226.702Z" fill="#778854"/>
<path d="M94.7841 245.84C101.596 241.992 109.555 240.363 117.312 239.906C125.113 239.385 132.809 240.909 140.449 242.158C146.173 243.13 151.996 243.715 157.6 245.294C163.197 246.873 168.533 249.382 173.544 252.319C176.904 254.341 180.099 256.598 182.977 259.283C183.273 259.549 183.035 260.093 182.631 260.027C175.091 258.886 167.852 256.838 160.493 255.012C153.328 253.234 146.495 250.119 139.251 248.658C132.939 247.269 123.784 246.938 117.291 246.434C109.953 245.919 102.667 245.879 95.0455 246.625C94.8108 246.657 94.5908 246.486 94.5695 246.248C94.5521 246.078 94.6415 245.919 94.7841 245.84Z" fill="#778854"/>
<path d="M76.6588 264.136C93.5988 261.007 111.36 260.995 128.435 263.095C134.889 263.898 141.379 264.606 147.717 266.123C156.165 268.228 164.375 271.342 172.027 275.499C173.923 276.6 175.805 277.712 177.615 278.966C177.96 279.196 177.757 279.804 177.323 279.738C162.645 277.934 148.04 275.33 133.551 272.426C123.571 270.58 112.456 269.67 102.328 268.959C99.2068 268.762 92.8655 268.479 89.7361 268.396C86.0601 268.316 80.6628 268.332 77.0068 268.342C74.4828 268.287 74.1388 264.616 76.6588 264.136Z" fill="#778854"/>
<path d="M60.9734 279.319C79.5961 277.15 98.5721 276.782 117.237 278.939C127.62 279.958 138.011 282.447 147.707 286.251C151.609 287.826 155.444 289.531 159.112 291.595C159.315 291.709 159.387 291.966 159.272 292.169C159.185 292.321 159.019 292.399 158.856 292.379C154.701 291.939 150.62 291.287 146.521 290.653C138.439 289.418 130.371 288.246 122.335 286.789C119.343 286.235 113.288 285.279 110.272 284.883C94.0908 282.756 77.6788 282.015 61.3748 283.367C58.7881 283.52 58.3214 279.719 60.9734 279.319Z" fill="#778854"/>
<path d="M32.0042 301.354C40.9428 298.599 50.1495 297.78 59.3922 297.2C68.5802 296.7 77.8042 296.71 87.0015 297.434C91.6002 297.792 96.2042 298.222 100.798 298.843C110.011 300.127 119.063 302.834 127.419 306.992C131.593 309.103 135.62 311.607 139.068 314.774C139.239 314.932 139.251 315.199 139.093 315.37C138.976 315.498 138.795 315.535 138.642 315.482C129.97 312.467 121.406 310.412 112.664 308.724C104.856 307.283 94.1215 304.932 86.3415 304.011C77.4509 302.951 68.4829 302.179 59.4949 302.044C50.6175 301.998 41.4802 302.207 32.8575 304.246C31.0095 304.72 30.1362 301.998 32.0042 301.354Z" fill="#778854"/>
<path d="M15.7681 314.731C29.0814 308.358 53.0201 308.802 67.7521 310.141C72.0561 310.621 76.3655 311.114 80.6441 311.831C89.2228 313.271 97.5455 316.077 105.372 319.893C109.283 321.835 113.092 324.051 116.521 326.829C116.855 327.083 116.597 327.674 116.176 327.579L91.2161 322.971C82.9801 321.589 74.9227 319.443 66.6854 318.082C58.4521 316.811 50.1601 315.427 41.8348 315.306C33.7441 315.311 25.2908 315.627 17.9161 319.151C14.9748 320.507 12.8468 316.246 15.7681 314.731Z" fill="#778854"/>
<path d="M14.1735 317.862C28.5215 322.362 43.3922 324.988 58.1695 327.76C65.5788 329.214 73.1041 330.182 80.3375 332.456C87.6508 334.712 94.8428 337.307 101.579 341.086C101.941 341.279 101.803 341.895 101.375 341.883C99.4122 341.911 97.4988 341.778 95.5841 341.662C86.1508 340.939 76.7588 339.666 67.6241 337.204C56.6841 334.192 45.7428 331.246 34.8282 328.092C27.5202 326.095 20.2415 323.971 12.9628 321.762C10.4201 320.93 11.5375 317.107 14.1735 317.862Z" fill="#778854"/>
</g>
<mask id="mask7_214_880" style="mask-type:luminance" maskUnits="userSpaceOnUse" x="1040" y="0" width="400" height="320">
<path d="M1040 0.0151367L1440 0.0151717L1440 319.015L1040 319.015L1040 0.0151367Z" fill="white"/>
</mask>
<g mask="url(#mask7_214_880)">
<path d="M1450.86 331.788C1417.68 298.167 1371.42 279.504 1324.57 273.216C1277.72 266.929 1230.03 272.193 1183.59 281.001C1153.19 286.768 1121.73 294.041 1091.72 286.477C1111.13 309.4 1134.57 320.622 1163.22 329.703C1191.87 338.782 1222.05 341.99 1252.05 343.817C1320.31 347.975 1383.15 341.379 1450.86 331.788Z" fill="#556541"/>
</g>
<mask id="mask8_214_880" style="mask-type:luminance" maskUnits="userSpaceOnUse" x="1040" y="0" width="400" height="320">
<path d="M1040 0.0151367L1440 0.0151717L1440 319.015L1040 319.015L1040 0.0151367Z" fill="white"/>
</mask>
<g mask="url(#mask8_214_880)">
<mask id="mask9_214_880" style="mask-type:luminance" maskUnits="userSpaceOnUse" x="1091" y="270" width="360" height="76">
<path d="M1450.86 331.788C1417.68 298.167 1371.42 279.504 1324.57 273.216C1277.72 266.929 1230.03 272.193 1183.59 281.001C1153.19 286.767 1121.73 294.041 1091.72 286.477C1111.13 309.4 1134.57 320.623 1163.22 329.703C1191.87 338.782 1222.05 341.99 1252.05 343.817C1320.31 347.975 1383.15 341.379 1450.86 331.788Z" fill="white"/>
</mask>
<g mask="url(#mask9_214_880)">
<path d="M1083.59 284.977L1082.34 289.695C1143.45 305.744 1206.55 316.353 1269.89 321.231C1333.22 326.106 1397.21 325.283 1460.06 318.778L1459.55 313.924C1396.99 320.398 1333.31 321.219 1270.26 316.365C1207.22 311.51 1144.41 300.949 1083.59 284.977Z" fill="#192314"/>
</g>
</g>
<mask id="mask10_214_880" style="mask-type:luminance" maskUnits="userSpaceOnUse" x="1040" y="0" width="400" height="320">
<path d="M1040 0.0151367L1440 0.0151717L1440 319.015L1040 319.015L1040 0.0151367Z" fill="white"/>
</mask>
<g mask="url(#mask10_214_880)">
<path d="M1512.24 313.35C1503 325.649 1496.49 335.065 1493.45 349.717C1493.13 344.094 1486.47 339.826 1480.75 336.226C1466.22 327.079 1455.7 314.847 1445.21 302.556C1448.84 304.491 1452.47 304.273 1454.96 301.799C1431.97 292.947 1416.05 271.726 1416.55 251.799C1419.83 252.74 1423.3 253.695 1426.54 253.203C1429.78 252.71 1430.49 250.39 1429.52 247.661C1416.82 246.746 1404.19 240.227 1397.18 230.964C1390.16 221.699 1389.64 210.068 1394.82 201.056C1399.83 205.066 1407.89 204.268 1410.32 199.433C1401.2 198.682 1388.46 194.829 1386.68 187.38C1384.44 177.958 1382.87 168.347 1382.78 158.935C1384 162.786 1387.95 166.19 1392.6 167.392C1397.24 168.595 1400.41 167.263 1403.37 164.495C1385.58 158.81 1373.38 142.791 1374.41 127.811C1376.83 131.928 1381.96 135.068 1387.32 135.723C1392.67 136.377 1396.4 133.903 1399.21 130.425C1390.47 130.923 1380.99 126.937 1375.81 120.587C1370.64 114.237 1372.25 105.345 1376.54 99.3726C1380.21 105.369 1388.19 107.489 1395.16 105.143C1387.84 103.259 1381.38 98.4669 1378.29 92.6391C1375.2 86.8113 1373.65 79.5751 1377.33 74.5864C1384.68 76.2967 1391.77 76.3513 1399.12 78.0616C1394.42 74.8472 1387.67 71.2776 1382.97 68.0631C1387.96 33.063 1412.59 20.1333 1412.59 20.1333C1432.48 35.8692 1444.96 54.9339 1444.96 54.9339C1444.96 54.9339 1439.62 67.1215 1431.55 71.3135C1438.1 73.1754 1444.98 70.5807 1448.23 66.0536C1452.02 73.1674 1456.9 81.4077 1456.71 88.8435C1456.52 96.2778 1450.98 103.718 1442.04 104.432C1451.14 110.734 1462.37 110.839 1469.99 104.674C1473.66 112.074 1474.31 120.443 1471.14 127.394C1467.96 134.347 1461.36 139.956 1453.02 142.786C1461.09 147.316 1472.34 145.697 1476.68 139.347C1479.19 148.164 1482.4 157.216 1482.02 166.013C1481.79 171.295 1473.75 173.296 1467.36 173.715C1468.43 177.471 1472.58 181.349 1476.85 183.148C1481.12 184.946 1486.22 185.034 1490.13 183.376C1491.26 189.914 1491.45 198.045 1488.73 203.918C1486.01 209.79 1478.11 214.198 1470.39 211.899C1473.17 215.89 1478.15 220.377 1483.47 221.48C1488.78 222.582 1494.4 221.685 1498.38 219.099C1499.54 225.713 1500.47 231.751 1498.88 238.063C1497.29 244.375 1492.39 250.251 1484.8 251.805C1491.04 252.013 1498.39 252.374 1504.63 252.581C1509.33 259.27 1508.92 266.306 1507.11 273.354C1505.31 280.404 1500.05 286.535 1492.71 290.157C1499.2 287.578 1508.27 287.147 1515.8 288.299C1520.31 298.323 1518.53 304.966 1512.24 313.35Z" fill="#556541"/>
</g>
<mask id="mask11_214_880" style="mask-type:luminance" maskUnits="userSpaceOnUse" x="1040" y="0" width="400" height="320">
<path d="M1040 0.0151367L1440 0.0151717L1440 319.015L1040 319.015L1040 0.0151367Z" fill="white"/>
</mask>
<g mask="url(#mask11_214_880)">
<mask id="mask12_214_880" style="mask-type:luminance" maskUnits="userSpaceOnUse" x="1372" y="20" width="147" height="330">
<path d="M1512.24 313.35C1503.01 325.649 1496.49 335.065 1493.45 349.717C1493.13 344.094 1486.47 339.826 1480.75 336.226C1466.22 327.079 1455.7 314.847 1445.21 302.556C1448.84 304.491 1452.47 304.273 1454.96 301.799C1431.97 292.947 1416.05 271.726 1416.55 251.799C1419.83 252.74 1423.3 253.695 1426.54 253.203C1429.78 252.71 1430.49 250.39 1429.52 247.661C1416.82 246.746 1404.19 240.225 1397.17 230.964C1390.16 221.699 1389.64 210.068 1394.82 201.056C1399.83 205.066 1407.89 204.268 1410.31 199.433C1401.2 198.682 1388.46 194.829 1386.68 187.38C1384.44 177.958 1382.88 168.347 1382.78 158.935C1384 162.786 1387.95 166.19 1392.6 167.392C1397.24 168.595 1400.41 167.263 1403.37 164.495C1385.58 158.81 1373.38 142.791 1374.41 127.811C1376.83 131.928 1381.96 135.068 1387.31 135.723C1392.67 136.377 1396.4 133.903 1399.21 130.425C1390.47 130.923 1380.99 126.937 1375.81 120.587C1370.64 114.237 1372.25 105.345 1376.54 99.3726C1380.2 105.369 1388.19 107.491 1395.16 105.143C1387.84 103.259 1381.38 98.4669 1378.29 92.6391C1375.2 86.8113 1373.65 79.5751 1377.33 74.5864C1384.68 76.2967 1391.77 76.3513 1399.12 78.0616C1394.42 74.8472 1387.67 71.2776 1382.97 68.0631C1387.96 33.063 1412.59 20.1333 1412.59 20.1333C1432.48 35.8692 1444.96 54.9339 1444.96 54.9339C1444.96 54.9339 1439.62 67.1215 1431.55 71.3148C1438.1 73.1754 1444.98 70.5807 1448.23 66.0536C1452.02 73.1674 1456.9 81.4077 1456.71 88.8435C1456.52 96.2778 1450.98 103.718 1442.03 104.432C1451.14 110.734 1462.37 110.839 1469.99 104.674C1473.65 112.074 1474.31 120.443 1471.14 127.394C1467.96 134.347 1461.36 139.956 1453.02 142.786C1461.08 147.316 1472.34 145.697 1476.68 139.347C1479.19 148.164 1482.4 157.216 1482.02 166.015C1481.79 171.295 1473.75 173.297 1467.36 173.715C1468.43 177.471 1472.58 181.349 1476.85 183.148C1481.12 184.946 1486.22 185.034 1490.13 183.376C1491.26 189.914 1491.45 198.045 1488.73 203.918C1486.01 209.79 1478.11 214.198 1470.39 211.899C1473.17 215.89 1478.15 220.377 1483.47 221.48C1488.78 222.582 1494.4 221.685 1498.38 219.099C1499.54 225.713 1500.46 231.751 1498.88 238.063C1497.29 244.375 1492.39 250.251 1484.8 251.805C1491.04 252.013 1498.39 252.374 1504.63 252.581C1509.33 259.27 1508.92 266.306 1507.11 273.354C1505.31 280.404 1500.05 286.535 1492.71 290.157C1499.2 287.578 1508.27 287.147 1515.8 288.299C1520.31 298.323 1518.53 304.967 1512.24 313.35Z" fill="white"/>
</mask>
<g mask="url(#mask12_214_880)">
<path d="M1413.96 19.9222C1413.63 28.1213 1413.47 36.3257 1413.47 44.5301C1413.47 152.982 1441.69 261.378 1494.82 355.98C1495.13 356.525 1494.93 357.215 1494.39 357.523C1493.84 357.827 1493.15 357.634 1492.84 357.088C1439.52 262.141 1411.2 153.374 1411.2 44.5301C1411.2 36.2964 1411.37 28.0615 1411.69 19.8331C1411.72 19.208 1412.24 18.7213 1412.87 18.7465C1413.49 18.7718 1413.98 19.2971 1413.96 19.9222Z" fill="#192314"/>
</g>
</g>
<mask id="mask13_214_880" style="mask-type:luminance" maskUnits="userSpaceOnUse" x="1040" y="0" width="400" height="320">
<path d="M1040 0.0151367L1440 0.0151717L1440 319.015L1040 319.015L1040 0.0151367Z" fill="white"/>
</mask>
<g mask="url(#mask13_214_880)">
<path d="M1306.72 201.126C1349.43 267.536 1412.19 321.538 1485.46 354.074C1488.96 355.63 1493.06 354.055 1494.62 350.557C1496.17 347.061 1494.6 342.965 1491.1 341.41C1418.77 313.495 1354.34 263.807 1308.64 199.831C1308.27 199.312 1307.54 199.191 1307.02 199.562C1306.52 199.921 1306.39 200.612 1306.72 201.126Z" fill="#778854"/>
<path d="M1310.91 203.396C1309.99 194.293 1309.07 185.102 1308.52 175.977C1308.22 171.957 1307.98 166.453 1308 162.422C1308.06 156.532 1308.17 150.144 1308.44 144.255C1308.67 139.631 1309.05 135.031 1309.32 130.389C1309.35 129.956 1308.69 129.78 1308.52 130.2C1307.21 133.065 1306.14 136.024 1305.2 139.034C1303.41 144.989 1302.15 151.41 1301.66 157.608L1301.45 162.345L1301.45 167.088L1301.62 171.829L1302 176.557C1302.5 181.113 1303.59 186.05 1304.85 190.475C1306.24 195.003 1307.9 199.448 1310.12 203.633C1310.32 204.024 1310.97 203.847 1310.91 203.396Z" fill="#778854"/>
<path d="M1307.96 200.176C1305.11 194.826 1301.34 190.125 1297.21 185.792C1294.54 183.192 1291.82 180.202 1289.47 177.307C1287.07 174.397 1284.54 171.357 1282.28 168.314C1281.12 166.705 1279.99 165.08 1278.78 163.461C1278.64 163.262 1278.36 163.216 1278.17 163.368C1278.05 163.46 1278 163.603 1278.01 163.74C1278.27 166.843 1279.06 169.869 1280.13 172.793C1281.91 177.594 1284.88 182.092 1288.21 185.976C1290.74 189.009 1293.61 192.288 1296.81 194.61C1300.12 197.058 1303.54 199.207 1307.4 200.782C1307.76 200.936 1308.15 200.521 1307.96 200.176Z" fill="#778854"/>
<path d="M1324.69 225.041C1323.99 216.999 1323.56 208.944 1323.61 200.879C1323.62 192.894 1323.27 184.82 1324.77 176.928C1325.37 173.401 1326.23 169.906 1326.78 166.367C1327.58 161.002 1327.93 155.64 1328.1 150.18C1328.17 146.523 1328.16 142.834 1327.72 139.042C1327.68 138.648 1327.1 138.507 1326.91 138.877C1322.48 147.096 1319.7 155.987 1318.32 165.157C1317.63 170.441 1317.73 176.397 1317.44 181.744C1317.16 187.259 1316.68 192.87 1316.95 198.401C1317.2 203.947 1318.2 209.596 1319.76 214.915C1320.77 218.495 1322.2 221.975 1323.9 225.278C1324.1 225.663 1324.74 225.514 1324.69 225.041Z" fill="#778854"/>
<path d="M1346.38 247.282C1344.86 239.797 1344.15 232.563 1343.91 225.23C1343.74 218.685 1343.13 209.649 1343.86 203.213C1344.26 198.646 1345.45 194.092 1346.43 189.616C1347.52 185.128 1348.1 180.556 1348.81 175.996C1349.57 170.345 1350.46 164.775 1350.7 159.026C1350.72 158.785 1350.53 158.575 1350.28 158.569C1350.14 158.567 1350.01 158.635 1349.93 158.74C1348.73 160.314 1347.68 161.965 1346.66 163.637C1345.45 165.723 1344.38 167.948 1343.36 170.135C1340.9 175.924 1338.95 181.96 1338.19 188.22C1337.48 196.893 1337.08 205.56 1336.68 214.261C1336.42 225.712 1339.01 238.111 1345.63 247.621C1345.76 247.811 1346.02 247.858 1346.21 247.726C1346.36 247.622 1346.42 247.445 1346.38 247.282Z" fill="#778854"/>
<path d="M1367.1 267.304C1365.39 252.978 1364.73 237.814 1364.81 223.384C1364.81 215.246 1365.81 206.474 1366.48 198.396C1367.2 187.821 1367.99 177.294 1368.13 166.669C1368.13 166.263 1367.52 166.087 1367.33 166.473C1365.23 170.311 1363.57 174.348 1362.13 178.475C1360.08 184.649 1358.54 191.005 1357.64 197.454C1356.78 203.898 1356.75 210.409 1356.61 216.895C1356.38 229.703 1357.31 243.037 1359.87 255.585C1360.63 259.23 1361.89 264.623 1362.96 268.16C1363.71 270.619 1367.39 269.895 1367.1 267.304Z" fill="#778854"/>
<path d="M1380.36 275.913C1376.97 257.892 1376.18 239.43 1377.09 221.155C1377.98 208.986 1378.63 196.703 1379.13 184.514C1379.23 182.446 1379.33 180.371 1379.3 178.261C1379.31 177.831 1378.66 177.681 1378.5 178.097C1372.82 191.568 1370.19 206.345 1370.22 220.941C1370 239.683 1372.31 258.47 1376.38 276.727C1377 279.238 1380.77 278.545 1380.36 275.913Z" fill="#778854"/>
<path d="M1399.29 295.04C1396.38 286.693 1395.23 277.651 1394.37 268.838C1393.58 259.907 1393.43 250.93 1393.57 241.999C1393.68 234.222 1394.92 223.238 1395.55 215.399C1396.33 206.554 1397.49 197.845 1399.59 188.933C1399.65 188.707 1399.51 188.478 1399.28 188.424C1399.12 188.384 1398.94 188.453 1398.85 188.582C1396.05 192.327 1393.98 196.579 1392.31 200.937C1389.04 209.654 1387.28 218.913 1386.95 228.185C1386.55 241.991 1387.35 255.82 1389.57 269.435C1391.09 278.546 1392.85 287.596 1396.5 296.182C1396.84 296.944 1397.72 297.292 1398.49 296.961C1399.23 296.637 1399.58 295.785 1399.29 295.04Z" fill="#778854"/>
<path d="M1417.75 307.109C1413.53 300.163 1412.35 291.842 1411.52 283.838C1410.78 275.564 1411.31 267.196 1411.72 258.898C1412.23 250.584 1413.53 242.37 1414.06 234.057L1416.08 208.82C1416.1 208.586 1415.92 208.381 1415.69 208.361C1415.53 208.349 1415.38 208.428 1415.3 208.554C1412.89 212.242 1411.08 216.248 1409.55 220.327C1406.56 228.484 1404.63 237.029 1404.08 245.689C1403.26 258.666 1403.82 271.649 1405.84 284.512C1407.22 293.265 1408.93 301.934 1413.62 309.76C1415.42 312.509 1419.52 309.922 1417.75 307.109Z" fill="#778854"/>
<path d="M1426.1 308.931C1428.94 294.062 1431.51 279.172 1433.97 264.262C1435.11 256.824 1436.71 249.445 1437.09 241.914C1437.52 234.348 1437.73 226.738 1437.01 219.157C1436.98 218.745 1436.36 218.624 1436.2 219.027C1431.79 229.599 1429.32 240.845 1428.28 252.196C1427.42 263.444 1426.59 274.717 1425.44 285.924C1424.56 293.376 1423.59 300.817 1422.1 308.136C1421.63 310.765 1425.49 311.599 1426.1 308.931Z" fill="#778854"/>
<path d="M1439.04 318.851C1440.46 303.298 1443.83 287.973 1448.02 272.94C1451.22 262.075 1455.21 250.148 1458.5 239.241C1459.7 235.455 1460.92 231.68 1462 227.835C1462.06 227.612 1461.93 227.383 1461.7 227.323C1461.53 227.277 1461.35 227.347 1461.25 227.486C1458.93 230.764 1456.86 234.198 1454.9 237.704C1452.13 242.772 1449.34 248.634 1447.22 254.007C1444.35 261.49 1442.15 269.211 1440.1 276.952C1436.7 290.578 1434.44 304.528 1434.17 318.603C1434.15 319.947 1435.23 321.052 1436.58 321.072C1437.86 321.091 1438.93 320.109 1439.04 318.851Z" fill="#778854"/>
<path d="M1313.06 207.932C1301.34 203.3 1288.29 201.897 1275.77 203.068L1271.05 203.555L1266.35 204.256C1260.23 205.38 1253.96 207.294 1248.21 209.677C1245.31 210.928 1242.48 212.297 1239.76 213.891C1239.38 214.103 1239.58 214.745 1240.03 214.667C1249.05 213.083 1258.19 211.592 1267.29 210.574C1271.3 210.074 1276.79 209.55 1280.82 209.359C1286.71 209.134 1293.1 208.892 1299 208.788C1302.07 208.766 1305.14 208.771 1308.22 208.756C1309.78 208.774 1311.34 208.798 1312.92 208.74C1313.35 208.739 1313.48 208.079 1313.06 207.932Z" fill="#778854"/>
<path d="M1327.39 226.125C1318.71 222.734 1309.19 221.522 1299.9 221.985C1294.37 222.288 1288.83 223.343 1283.36 224.187C1278.06 225.029 1272.13 225.534 1266.93 226.766C1257.94 229.077 1249.37 232.753 1241.64 237.996C1241.31 238.219 1241.47 238.794 1241.89 238.783C1245.71 238.838 1249.39 238.467 1253.02 238.017C1258.44 237.288 1263.75 236.391 1269.01 235.045C1272.48 234.131 1275.87 232.925 1279.32 231.959C1286.18 229.943 1293.32 229.258 1300.41 228.631C1305.68 228.068 1311.07 227.551 1316.35 227.277C1317.95 227.162 1320.14 227.145 1321.75 227.068C1323.57 226.997 1325.39 227.052 1327.26 226.934C1327.69 226.92 1327.81 226.266 1327.39 226.125Z" fill="#778854"/>
<path d="M1345.33 245.215C1338.53 241.377 1330.58 239.752 1322.83 239.296C1315.04 238.776 1307.35 240.296 1299.72 241.542C1294 242.512 1288.19 243.095 1282.59 244.67C1277 246.245 1271.67 248.748 1266.67 251.677C1263.31 253.694 1260.12 255.945 1257.25 258.624C1256.95 258.888 1257.19 259.431 1257.59 259.366C1265.12 258.227 1272.35 256.185 1279.7 254.364C1286.86 252.59 1293.68 249.483 1300.92 248.025C1307.22 246.64 1316.37 246.31 1322.85 245.807C1330.18 245.294 1337.46 245.254 1345.07 245.997C1345.3 246.029 1345.52 245.859 1345.55 245.622C1345.56 245.452 1345.47 245.294 1345.33 245.215Z" fill="#778854"/>
<path d="M1363.43 263.465C1346.52 260.343 1328.78 260.331 1311.72 262.426C1305.28 263.227 1298.79 263.933 1292.46 265.446C1284.02 267.546 1275.83 270.652 1268.18 274.798C1266.29 275.897 1264.41 277.006 1262.6 278.256C1262.26 278.486 1262.46 279.093 1262.89 279.026C1277.55 277.227 1292.14 274.629 1306.61 271.733C1316.58 269.892 1327.68 268.984 1337.8 268.275C1340.91 268.078 1347.25 267.796 1350.37 267.714C1354.04 267.634 1359.44 267.65 1363.09 267.659C1365.61 267.605 1365.95 263.943 1363.43 263.465Z" fill="#778854"/>
<path d="M1379.1 278.609C1360.5 276.445 1341.55 276.078 1322.91 278.229C1312.54 279.246 1302.16 281.729 1292.47 285.523C1288.58 287.094 1284.75 288.795 1281.08 290.853C1280.88 290.966 1280.81 291.223 1280.92 291.425C1281.01 291.577 1281.17 291.655 1281.34 291.635C1285.49 291.196 1289.56 290.546 1293.66 289.913C1301.73 288.682 1309.79 287.512 1317.81 286.059C1320.8 285.507 1326.85 284.553 1329.86 284.158C1346.02 282.037 1362.42 281.298 1378.7 282.646C1381.28 282.799 1381.75 279.008 1379.1 278.609Z" fill="#778854"/>
<path d="M1408.04 300.587C1399.11 297.84 1389.91 297.023 1380.68 296.445C1371.5 295.946 1362.29 295.955 1353.1 296.677C1348.51 297.035 1343.91 297.463 1339.33 298.083C1330.12 299.364 1321.08 302.064 1312.74 306.212C1308.57 308.317 1304.55 310.815 1301.1 313.973C1300.93 314.132 1300.92 314.398 1301.08 314.568C1301.19 314.695 1301.37 314.733 1301.53 314.679C1310.19 311.673 1318.74 309.623 1327.47 307.939C1335.27 306.502 1345.99 304.157 1353.76 303.238C1362.64 302.181 1371.6 301.411 1380.58 301.276C1389.44 301.23 1398.57 301.439 1407.18 303.472C1409.03 303.946 1409.9 301.23 1408.04 300.587Z" fill="#778854"/>
<path d="M1424.25 313.931C1410.95 307.573 1387.04 308.016 1372.33 309.352C1368.03 309.83 1363.73 310.322 1359.45 311.038C1350.89 312.474 1342.57 315.272 1334.76 319.079C1330.85 321.016 1327.05 323.227 1323.62 325.997C1323.29 326.251 1323.54 326.84 1323.97 326.746L1348.9 322.15C1357.12 320.77 1365.17 318.631 1373.4 317.273C1381.62 316.005 1389.9 314.625 1398.22 314.504C1406.3 314.509 1414.74 314.824 1422.11 318.339C1425.04 319.692 1427.17 315.441 1424.25 313.931Z" fill="#778854"/>
<path d="M1425.84 317.053C1411.51 321.542 1396.66 324.162 1381.9 326.927C1374.5 328.376 1366.99 329.342 1359.76 331.611C1352.46 333.861 1345.27 336.449 1338.55 340.218C1338.18 340.411 1338.32 341.025 1338.75 341.014C1340.71 341.041 1342.62 340.909 1344.53 340.793C1353.95 340.072 1363.33 338.802 1372.46 336.347C1383.39 333.342 1394.31 330.403 1405.21 327.258C1412.51 325.266 1419.78 323.147 1427.05 320.943C1429.59 320.114 1428.48 316.301 1425.84 317.053Z" fill="#778854"/>
</g>
</svg>
