<svg width="34" height="35" viewBox="0 0 34 35" fill="none" xmlns="http://www.w3.org/2000/svg">
<path d="M9.91675 14.1816V24.0983" stroke="#F8BE52" stroke-width="1.5" stroke-linecap="round" stroke-linejoin="round"/>
<path d="M15.5833 18.4316V24.0983M15.5833 18.4316C15.5833 16.0844 17.486 14.1816 19.8333 14.1816C22.1805 14.1816 24.0833 16.0844 24.0833 18.4316V24.0983M15.5833 18.4316V14.1816" stroke="#F8BE52" stroke-width="1.5" stroke-linecap="round" stroke-linejoin="round"/>
<path d="M9.92802 9.93164H9.91528" stroke="#F8BE52" stroke-width="2" stroke-linecap="round" stroke-linejoin="round"/>
<path d="M3.54175 17.015C3.54175 10.6707 3.54175 7.4985 5.51267 5.52756C7.48361 3.55664 10.6558 3.55664 17.0001 3.55664C23.3443 3.55664 26.5165 3.55664 28.4875 5.52756C30.4584 7.4985 30.4584 10.6707 30.4584 17.015C30.4584 23.3592 30.4584 26.5314 28.4875 28.5024C26.5165 30.4733 23.3443 30.4733 17.0001 30.4733C10.6558 30.4733 7.48361 30.4733 5.51267 28.5024C3.54175 26.5314 3.54175 23.3592 3.54175 17.015Z" stroke="#F8BE52" stroke-width="1.5" stroke-linejoin="round"/>
</svg>
