<svg width="24" height="25" viewBox="0 0 24 25" fill="none" xmlns="http://www.w3.org/2000/svg">
<path d="M14.5 9.51514H14.509" stroke="#556541" stroke-width="2" stroke-linecap="round" stroke-linejoin="round"/>
<path d="M14.5 6.01514C16.3941 6.01514 18 7.62833 18 9.58545C18 11.5737 16.368 12.969 14.8605 13.9178C14.7506 13.9816 14.6264 14.0151 14.5 14.0151C14.3736 14.0151 14.2494 13.9816 14.1395 13.9178C12.6348 12.9597 11 11.5806 11 9.58545C11 7.62833 12.6059 6.01514 14.5 6.01514Z" stroke="#556541" stroke-width="1.5"/>
<path d="M22 12.0151C22 17.5379 17.5228 22.0151 12 22.0151C6.47715 22.0151 2 17.5379 2 12.0151C2 6.49229 6.47715 2.01514 12 2.01514C17.5228 2.01514 22 6.49229 22 12.0151Z" stroke="#556541" stroke-width="1.5"/>
<path d="M9 15.0151L5 19.0151M15 21.0151L3 9.01514" stroke="#556541" stroke-width="1.5" stroke-linecap="round"/>
</svg>
