<svg width="140" height="141" viewBox="0 0 140 141" fill="none" xmlns="http://www.w3.org/2000/svg">
<circle cx="70" cy="70" r="70" fill="#778854"/>
<g clip-path="url(#clip0_13_566)">
<path d="M63.4328 92.4877C65.6247 96.6432 68.6528 99.3893 68.8276 99.5459C69.1497 99.8349 69.5673 99.9945 70 99.994C70.4193 99.994 70.839 99.8448 71.1728 99.5459C71.3476 99.3893 74.3748 96.6432 76.5666 92.4877C73.987 91.4614 71.7573 90.0532 70 88.7198C68.2422 90.0534 66.0129 91.4614 63.4328 92.4877ZM95.9031 77.2647C95.578 77.634 95.2415 77.9931 94.8941 78.3414C91.4402 81.7947 86.8567 84.2644 81.2697 85.6816C78.3025 86.4341 75.5531 86.7542 73.4817 86.8827C76.2287 88.7184 79.9545 90.4854 84.1197 90.4854C92.6057 90.4854 99.2694 83.152 99.549 82.8398C99.8375 82.5174 99.997 82.1001 99.997 81.6675C99.997 81.2349 99.8375 80.8175 99.549 80.4952C99.4576 80.393 98.108 78.9026 95.903 77.2647H95.9031ZM58.7307 85.682C53.1437 84.2649 48.5597 81.7952 45.1058 78.3414C44.7582 77.9932 44.4216 77.6341 44.0965 77.2647C41.892 78.9026 40.5424 80.3936 40.4508 80.4952C39.8535 81.1626 39.8535 82.1729 40.4508 82.8402C40.7305 83.1524 47.3941 90.4854 55.8797 90.4854C60.0455 90.4854 63.7707 88.7184 66.5182 86.8827C64.4468 86.7542 61.6975 86.4341 58.7307 85.682ZM68.8276 82.9771C69.1496 83.2662 69.5672 83.426 70 83.4257C70.4193 83.4257 70.8386 83.2761 71.1728 82.9771C71.604 82.5912 81.7352 73.3852 81.7352 61.7126C81.7352 50.0406 71.6039 40.8345 71.1728 40.4481C70.8505 40.1591 70.4328 39.9995 70 40C69.5673 39.9995 69.1497 40.1592 68.8276 40.4481C68.3959 40.8345 58.2647 50.0406 58.2647 61.7126C58.2647 73.3847 68.3964 82.5912 68.8276 82.9771ZM88.6849 49.0371C87.8326 46.086 86.9153 44.1546 86.8572 44.0348C86.4694 43.2268 85.536 42.8404 84.6905 43.1371C84.5651 43.1814 82.5513 43.8974 79.8625 45.3815C81.0261 47.1503 82.0122 48.9502 82.8077 50.7561C84.8168 49.9761 86.8156 49.424 88.6849 49.0371ZM60.1375 45.3815C57.4489 43.8974 55.4353 43.1814 55.3093 43.1371C54.464 42.8399 53.5304 43.2268 53.1428 44.0343C53.0851 44.1546 52.1673 46.086 51.315 49.0371C53.184 49.4235 55.183 49.9756 57.1922 50.7556C57.9879 48.9507 58.9738 47.1504 60.1375 45.3815Z" fill="#EBF1E3"/>
<path d="M85.2504 61.7126C85.2504 64.8094 84.6383 67.9872 83.4303 71.1567C82.4841 73.6405 81.1698 76.1285 79.5238 78.5524C78.2686 80.4008 76.9988 81.9467 75.9496 83.1177C80.7894 82.4919 87.5411 80.7226 92.4085 75.8556C100.662 67.6022 100.008 53.9283 99.9757 53.3502C99.9519 52.9182 99.7696 52.5102 99.4637 52.2043C99.1577 51.8983 98.7497 51.716 98.3178 51.6921C98.2385 51.688 97.8514 51.6683 97.2223 51.6683C94.9453 51.6683 89.5021 51.9211 84.0451 54.0461C84.8458 56.6233 85.2504 59.1945 85.2504 61.7126ZM64.0508 83.1181C63.0017 81.9467 61.7318 80.4008 60.4766 78.5524C58.8305 76.1285 57.5159 73.6405 56.5696 71.1567C55.3621 67.9872 54.7497 64.8094 54.7497 61.7126C54.7497 59.1945 55.1542 56.6231 55.9553 54.046C50.4983 51.9211 45.0556 51.6683 42.7786 51.6683C42.1487 51.6683 41.7614 51.6876 41.6822 51.6921C41.2502 51.716 40.8422 51.8983 40.5363 52.2043C40.2304 52.5102 40.0481 52.9182 40.0242 53.3502C39.9923 53.9283 39.3381 67.6022 47.5915 75.8557C52.4595 80.7231 59.211 82.4919 64.0508 83.1181Z" fill="#EBF1E3"/>
</g>
<defs>
<clipPath id="clip0_13_566">
<rect width="60" height="60" fill="white" transform="translate(40 40)"/>
</clipPath>
</defs>
</svg>
