<svg width="140" height="141" viewBox="0 0 140 141" fill="none" xmlns="http://www.w3.org/2000/svg">
<circle cx="70" cy="70" r="70" fill="#778854"/>
<path d="M48.8333 62.375C53.3206 62.375 56.9583 58.7373 56.9583 54.25C56.9583 49.7627 53.3206 46.125 48.8333 46.125C44.3459 46.125 40.7083 49.7627 40.7083 54.25C40.7083 58.7373 44.3459 62.375 48.8333 62.375Z" fill="#EBF1E3"/>
<path d="M57.7437 67.9812C55.0178 69.6822 52.7696 72.049 51.2108 74.8587C49.6519 77.6684 48.8338 80.8285 48.8333 84.0416H43.4167C41.9814 84.0374 40.6061 83.4653 39.5912 82.4504C38.5763 81.4355 38.0043 80.0603 38 78.625V73.2083C38.0064 71.0554 38.8645 68.9925 40.3869 67.4702C41.9092 65.9478 43.9721 65.0897 46.125 65.0833H51.5417C52.724 65.086 53.8916 65.3467 54.9628 65.8472C56.034 66.3477 56.9831 67.076 57.7437 67.9812Z" fill="#EBF1E3"/>
<path d="M92.1667 62.375C96.6541 62.375 100.292 58.7373 100.292 54.25C100.292 49.7627 96.6541 46.125 92.1667 46.125C87.6794 46.125 84.0417 49.7627 84.0417 54.25C84.0417 58.7373 87.6794 62.375 92.1667 62.375Z" fill="#EBF1E3"/>
<path d="M103 73.2083V78.625C102.996 80.0603 102.424 81.4355 101.409 82.4504C100.394 83.4653 99.0187 84.0374 97.5834 84.0416H92.1668C92.1663 80.8285 91.3482 77.6684 89.7893 74.8587C88.2305 72.049 85.9823 69.6822 83.2563 67.9812C84.017 67.076 84.9661 66.3477 86.0373 65.8472C87.1085 65.3467 88.2761 65.086 89.4584 65.0833H94.8751C97.028 65.0897 99.0909 65.9478 100.613 67.4702C102.136 68.9925 102.994 71.0554 103 73.2083Z" fill="#EBF1E3"/>
<path d="M70.5001 67.7917C76.4832 67.7917 81.3334 62.9414 81.3334 56.9583C81.3334 50.9752 76.4832 46.125 70.5001 46.125C64.517 46.125 59.6667 50.9752 59.6667 56.9583C59.6667 62.9414 64.517 67.7917 70.5001 67.7917Z" fill="#EBF1E3"/>
<path d="M86.75 84.0417V86.75C86.7436 88.9029 85.8855 90.9658 84.3631 92.4881C82.8408 94.0105 80.7779 94.8686 78.625 94.875H62.375C60.2221 94.8686 58.1592 94.0105 56.6369 92.4881C55.1145 90.9658 54.2564 88.9029 54.25 86.75V84.0417C54.25 80.4502 55.6767 77.0058 58.2163 74.4663C60.7558 71.9267 64.2002 70.5 67.7917 70.5H73.2083C76.7998 70.5 80.2442 71.9267 82.7837 74.4663C85.3233 77.0058 86.75 80.4502 86.75 84.0417Z" fill="#EBF1E3"/>
</svg>
