<svg width="140" height="141" viewBox="0 0 140 141" fill="none" xmlns="http://www.w3.org/2000/svg">
<circle cx="70" cy="70" r="70" fill="#778854"/>
<g clip-path="url(#clip0_43_4313)">
<path d="M97.9432 78.4349C94.2003 78.6657 89.2796 82.4041 84.5357 84.5534C78.7166 87.1877 69.6629 85.0698 69.6611 85.0698C71.0571 84.4145 76.735 83.0623 77.8793 82.5607C83.9556 79.886 83.4384 74.3139 80.5449 74.3595C76.7232 74.4236 74.4765 75.3622 66.8456 76.4025C61.0625 77.1887 54.2238 76.901 50.9427 78.1538C46.3117 79.9229 38.8547 91.8239 38.8547 91.8239L50.3892 103C50.3892 103 57.5283 95.9684 61.0016 95.9684C68.9167 95.9684 69.2343 95.8615 76.5842 95.4628C79.7122 95.2954 80.3644 95.167 82.1506 94.5644C91.6795 91.343 101.908 82.7645 102.097 81.732C102.534 79.3419 99.9175 78.3117 97.9432 78.4349ZM74.5327 49.1533C74.3626 52.6758 73.8639 56.1885 73.1988 59.654C71.1394 60.229 68.7296 61.8872 65.8885 64.6785C63.4169 67.1065 61.5414 69.4997 61.4627 69.6004C61.2589 69.8612 61.1326 70.1739 61.098 70.5031C61.0634 70.8322 61.122 71.1644 61.2671 71.4618C61.4122 71.7592 61.638 72.0099 61.9187 72.1852C62.1994 72.3605 62.5237 72.4534 62.8546 72.4533H86.695C87.0258 72.4533 87.3501 72.3603 87.6307 72.185C87.9113 72.0096 88.137 71.759 88.2821 71.4616C88.4271 71.1642 88.4857 70.8321 88.4512 70.503C88.4167 70.1739 88.2904 69.8612 88.0867 69.6004C88.0081 69.4997 86.1329 67.1065 83.661 64.6785C80.9014 61.9674 78.5491 60.3258 76.5291 59.7066C76.5469 59.3895 76.5644 59.0725 76.5785 58.755C76.6755 56.6092 76.7103 54.4593 76.6537 52.3117C76.5955 50.0921 76.456 47.8558 76.0567 45.6685C75.8736 44.6642 75.6336 43.6727 75.2751 42.7157C75.1502 42.3825 74.9646 42.0248 74.5342 42.1267C74.432 42.1514 74.3387 42.2043 74.265 42.2795C74.1914 42.3547 74.1404 42.449 74.1178 42.5518C74.0869 42.695 74.1288 42.8314 74.1615 42.9695C74.6376 44.9846 74.6319 47.0956 74.5327 49.1533Z" fill="#EBF1E3"/>
<path d="M57.6173 43.4675C58.8491 45.9839 60.2438 47.7495 61.9042 48.8614C63.553 49.972 65.6985 50.7377 67.798 50.951C68.1671 50.9865 68.5318 51.0102 68.8815 51.0102C70.4712 51.0102 71.7619 50.6173 72.7074 49.8535C72.7653 49.8009 72.8209 49.7336 72.8275 49.6543C72.8329 49.5754 72.7856 49.4966 72.7371 49.4364C72.25 48.9137 71.6764 48.4776 71.1207 48.0545L71.047 48.0021C70.1533 47.322 69.2359 46.6886 68.5346 46.2137C68.2584 46.03 67.99 45.8446 67.703 45.6571C68.8947 46.2137 70.124 46.7481 71.3981 47.1848C72.0593 47.4087 72.8109 47.668 73.572 47.6784C73.572 47.6784 73.9967 47.708 74.0361 47.4195C74.0523 47.2968 74.0568 47.1719 74.0599 47.0428C74.0649 46.7622 74.0465 46.4816 74.005 46.204C73.9132 45.6655 73.7373 45.1091 73.4811 44.5472C72.9552 43.4161 72.1324 42.3305 71.0269 41.3084C69.8019 40.1738 68.4845 39.2972 67.2241 38.7852C65.9554 38.2639 64.4701 38.0001 62.8066 38.0001C61.8024 38.0001 60.7309 38.0922 59.5413 38.2816C58.65 38.4269 56.4613 38.8108 56.1408 39.1746C56.0735 39.2549 56.1246 39.4466 56.1502 39.5476C56.5035 40.8485 56.957 42.1161 57.6173 43.4675ZM77.3903 47.6785C78.1515 47.6681 78.9029 47.4089 79.5642 47.185C80.8384 46.7481 82.0676 46.2139 83.2593 45.6572C82.9723 45.8448 82.7039 46.0304 82.4277 46.2139C81.7265 46.6887 80.8091 47.3222 79.9153 48.0022L79.8418 48.0547C79.2859 48.4778 78.7123 48.9137 78.2253 49.4366C78.1771 49.4968 78.1294 49.5755 78.1349 49.6545C78.1414 49.7338 78.197 49.801 78.255 49.8537C79.2004 50.6174 80.491 51.0104 82.0807 51.0104C82.4302 51.0104 82.795 50.9865 83.1641 50.9512C85.2637 50.7379 87.4093 49.9722 89.058 48.8616C90.7184 47.7497 92.1133 45.9843 93.3449 43.4676C94.005 42.1165 94.4586 40.8487 94.8122 39.5479C94.838 39.4469 94.8892 39.2553 94.8215 39.175C94.5016 38.8112 92.3123 38.4274 91.421 38.2819C90.2318 38.0928 89.1597 38.0004 88.1561 38.0004C86.4922 38.0004 85.0071 38.2642 83.7384 38.7856C82.4781 39.2975 81.1605 40.1741 79.9358 41.3088C78.83 42.3311 78.0072 43.4166 77.4818 44.5475C77.2256 45.1094 77.0493 45.6659 76.9577 46.2043C76.9164 46.482 76.898 46.7625 76.9026 47.0432C76.9059 47.1722 76.9102 47.2971 76.9266 47.4198C76.9655 47.7082 77.3903 47.6785 77.3903 47.6785Z" fill="#EBF1E3"/>
</g>
<defs>
<clipPath id="clip0_43_4313">
<rect width="65" height="65" fill="white" transform="translate(38 38)"/>
</clipPath>
</defs>
</svg>
