<svg width="140" height="141" viewBox="0 0 140 141" fill="none" xmlns="http://www.w3.org/2000/svg">
<circle cx="70" cy="70" r="70" fill="#778854"/>
<path d="M88.75 94.375H86.875V85C86.875 78.0588 80.2356 72.5912 75.625 70.0525V69.9475C80.2356 67.4088 86.875 61.9412 86.875 55V45.625H88.75C89.2473 45.625 89.7242 45.4275 90.0758 45.0758C90.4275 44.7242 90.625 44.2473 90.625 43.75C90.625 43.2527 90.4275 42.7758 90.0758 42.4242C89.7242 42.0725 89.2473 41.875 88.75 41.875H51.25C50.7527 41.875 50.2758 42.0725 49.9242 42.4242C49.5725 42.7758 49.375 43.2527 49.375 43.75C49.375 44.2473 49.5725 44.7242 49.9242 45.0758C50.2758 45.4275 50.7527 45.625 51.25 45.625H53.125V55C53.125 61.9412 59.7644 67.4088 64.375 69.9475V70.0525C59.7644 72.5912 53.125 78.0588 53.125 85V94.375H51.25C50.7527 94.375 50.2758 94.5725 49.9242 94.9242C49.5725 95.2758 49.375 95.7527 49.375 96.25C49.375 96.7473 49.5725 97.2242 49.9242 97.5758C50.2758 97.9275 50.7527 98.125 51.25 98.125H88.75C89.2473 98.125 89.7242 97.9275 90.0758 97.5758C90.4275 97.2242 90.625 96.7473 90.625 96.25C90.625 95.7527 90.4275 95.2758 90.0758 94.9242C89.7242 94.5725 89.2473 94.375 88.75 94.375ZM79.375 90.625C79.375 91.1223 79.1775 91.5992 78.8258 91.9508C78.4742 92.3025 77.9973 92.5 77.5 92.5H62.5C62.0027 92.5 61.5258 92.3025 61.1742 91.9508C60.8225 91.5992 60.625 91.1223 60.625 90.625V85C60.625 82.0319 64.825 78.145 68.7175 76.2456L69.175 76.0206C69.4322 75.8961 69.7143 75.8315 70 75.8315C70.2857 75.8315 70.5678 75.8961 70.825 76.0206L71.2863 76.2456C75.175 78.145 79.375 82.0319 79.375 85V90.625Z" fill="#EBF1E3"/>
</svg>
