<svg width="25" height="25" viewBox="0 0 25 25" fill="none" xmlns="http://www.w3.org/2000/svg">
<path d="M11.613 1.48679V9.12821C11.613 10.4428 13.6564 10.445 13.6564 9.12821V1.48679C13.6564 0.172187 11.613 0.169989 11.613 1.48679Z" fill="#393939"/>
<path d="M11.613 15.8716V23.514C11.613 24.8276 13.6564 24.8298 13.6564 23.514V15.8716C13.6564 14.5569 11.613 14.5548 11.613 15.8716Z" fill="#393939"/>
<path d="M23.6303 11.4231H16.3681C15.8163 11.4231 15.3469 11.8924 15.3469 12.4442C15.3469 12.9982 15.8141 13.4653 16.3681 13.4653H23.6303C24.1832 13.4653 24.6525 12.996 24.6525 12.4442C24.6525 11.8902 24.1842 11.4231 23.6303 11.4231Z" fill="#393939"/>
<path d="M8.2759 11.4231H1.01259C0.460804 11.4231 -0.00854492 11.8924 -0.00854492 12.4442C-0.00854492 12.9982 0.458606 13.4653 1.01259 13.4653H8.2759C8.82768 13.4653 9.29703 12.996 9.29703 12.4442C9.29703 11.8902 8.82878 11.4231 8.2759 11.4231Z" fill="#393939"/>
</svg>
