<svg width="31" height="31" viewBox="0 0 31 31" fill="none" xmlns="http://www.w3.org/2000/svg">
<path d="M15.5 28C22.4036 28 28 22.4036 28 15.5C28 8.59644 22.4036 3 15.5 3C8.59644 3 3 8.59644 3 15.5C3 22.4036 8.59644 28 15.5 28Z" stroke="white" stroke-width="1.5"/>
<path d="M19.8164 15.9935C19.627 16.7769 18.7321 17.3305 16.9424 18.4377C15.2121 19.508 14.3471 20.0432 13.6499 19.8281C13.3616 19.7391 13.0991 19.5702 12.8873 19.3375C12.375 18.7747 12.375 17.6831 12.375 15.5C12.375 13.3169 12.375 12.2252 12.8873 11.6624C13.0991 11.4298 13.3616 11.2608 13.6499 11.1719C14.3471 10.9568 15.2121 11.492 16.9424 12.5623C18.7321 13.6695 19.627 14.2231 19.8164 15.0065C19.8945 15.3299 19.8945 15.6701 19.8164 15.9935Z" stroke="white" stroke-width="1.5" stroke-linejoin="round"/>
</svg>
